<svg width="28" height="28" viewBox="0 0 28 28" fill="none" xmlns="http://www.w3.org/2000/svg">
<rect width="28" height="28" rx="14" fill="#75147C"/>
<path d="M11.5053 9.684C11.6813 9.988 11.8773 10.36 12.0933 10.8C12.3093 11.24 12.5293 11.704 12.7533 12.192C12.9773 12.672 13.1973 13.164 13.4133 13.668C13.6373 14.164 13.8413 14.624 14.0253 15.048C14.2093 14.624 14.4093 14.164 14.6253 13.668C14.8413 13.164 15.0613 12.672 15.2853 12.192C15.5093 11.704 15.7293 11.24 15.9453 10.8C16.1613 10.36 16.3573 9.988 16.5333 9.684H17.9013C17.9733 10.292 18.0413 10.94 18.1053 11.628C18.1693 12.308 18.2253 13.008 18.2733 13.728C18.3293 14.44 18.3773 15.16 18.4173 15.888C18.4653 16.608 18.5053 17.312 18.5373 18H17.0493C17.0173 17.032 16.9773 16.036 16.9293 15.012C16.8893 13.988 16.8253 12.996 16.7373 12.036C16.6493 12.22 16.5453 12.44 16.4253 12.696C16.3053 12.952 16.1773 13.232 16.0413 13.536C15.9053 13.832 15.7653 14.14 15.6213 14.46C15.4853 14.78 15.3493 15.092 15.2133 15.396C15.0853 15.692 14.9653 15.972 14.8533 16.236C14.7413 16.492 14.6453 16.712 14.5653 16.896H13.4373C13.3573 16.712 13.2613 16.488 13.1493 16.224C13.0373 15.96 12.9133 15.68 12.7773 15.384C12.6493 15.08 12.5133 14.768 12.3693 14.448C12.2333 14.128 12.0973 13.82 11.9613 13.524C11.8253 13.228 11.6973 12.952 11.5773 12.696C11.4573 12.432 11.3533 12.212 11.2653 12.036C11.1773 12.996 11.1093 13.988 11.0613 15.012C11.0213 16.036 10.9853 17.032 10.9533 18H9.46527C9.49727 17.312 9.53327 16.6 9.57327 15.864C9.62127 15.128 9.66927 14.4 9.71727 13.68C9.77327 12.952 9.83327 12.248 9.89727 11.568C9.96127 10.888 10.0293 10.26 10.1013 9.684H11.5053Z" fill="white"/>
</svg>
