<svg width="255" height="45" viewBox="0 0 255 45" fill="none" xmlns="http://www.w3.org/2000/svg">
<path d="M22.5671 22.5211H19.8854C19.9708 22.5679 20.0557 22.6147 20.1411 22.6621C19.1979 23.1885 18.2501 23.7183 17.245 24.279V22.5211H16.7846C16.7915 23.5676 16.5627 24.7129 16.0667 25.7485C15.5857 24.6255 15.3747 23.5653 15.381 22.5211H14.944V24.3937C13.9813 23.8365 12.9762 23.2553 11.9636 22.669C12.0456 22.621 12.1334 22.5696 12.2159 22.5205H6.97528C7.03835 22.5662 7.10658 22.6153 7.1685 22.6598C5.99194 23.5122 4.6468 24.4862 3.31026 25.4545C2.80799 24.6655 2.57978 23.6024 2.61476 22.5205H2.21053C2.18358 23.6846 2.39516 24.8425 2.89915 25.9923C1.09818 26.0842 0.693378 25.7554 0.654388 24.1762C0.640627 23.6247 0.635467 23.0726 0.636613 22.5205H0.176767C0.176767 22.5354 0.176193 22.5496 0.176767 22.5645C0.17562 22.6221 0.178487 22.6792 0.177913 22.7369C0.235251 28.57 2.58494 34.1587 6.73159 38.2876C10.8742 42.4131 16.4801 44.7527 22.3331 44.8138C22.4105 44.8138 22.4891 44.8116 22.5671 44.811V42.9264C22.0596 41.7075 22.0459 40.1483 22.5671 38.6901V36.1541C21.9312 34.3597 21.9358 32.7554 22.5676 30.9987V28.9297C21.7643 27.0553 21.8463 25.3003 22.5676 23.5036V22.5194L22.5671 22.5211ZM16.034 33.0717C15.0702 30.9359 15.0748 29.0102 16.0398 26.8835C16.9973 29.013 17.007 30.9393 16.034 33.0717ZM15.2927 33.9886C14.5972 35.4582 12.7033 36.6725 10.8008 36.8398C11.978 35.28 13.4338 34.3871 15.2927 33.9886ZM10.255 36.576C9.18449 35.3365 9.09848 32.3558 10.1415 30.6133C11.1145 32.696 11.0319 34.6155 10.255 36.576ZM11.2515 35.4273V31.9847C12.2647 32.5602 13.2549 33.1225 14.2176 33.6695C13.2818 34.2244 12.3214 34.7936 11.2515 35.4273ZM10.6632 30.4478C12.2154 30.2691 14.3844 31.5645 15.483 33.3737C13.4103 32.941 11.8381 32.0669 10.6632 30.4478ZM12.0296 29.9659C12.9762 29.4292 13.9229 28.8926 14.9091 28.3336V31.6598C13.959 31.1009 12.9837 30.5271 12.0296 29.9659ZM10.5325 29.7021C11.9011 27.8695 13.447 26.9132 15.6975 26.5095C14.3426 28.3793 12.7784 29.3253 10.5325 29.7021ZM11.2635 27.9134V24.7037C12.2389 25.2381 13.1907 25.7588 14.1631 26.2914C13.2245 26.8167 12.3157 27.3248 11.2635 27.9134ZM15.5065 25.9563C13.3139 25.6663 11.8547 24.6523 10.4958 22.9527C12.6689 23.293 14.1797 24.2213 15.5065 25.9563ZM10.2051 29.3499C9.14149 27.8621 9.11798 24.9829 10.1638 23.37C11.0663 25.3968 11.0887 27.3265 10.2051 29.3499ZM9.41097 23.0418C8.30035 24.9395 5.81706 26.292 3.93065 26.0265C4.95929 24.1436 7.36058 22.8357 9.41097 23.0418ZM8.95342 24.6215V28.0602C8.01309 27.5178 7.0458 26.96 6.02405 26.3708C6.97356 25.8039 7.93167 25.2318 8.95342 24.6215ZM9.52164 29.5286C7.84165 29.963 5.3079 28.679 3.9232 26.6351C6.34972 26.7379 8.09852 27.7656 9.52164 29.5286ZM1.89747 30.2382C1.62397 29.2705 1.35047 28.3034 1.0311 27.1735C1.63429 26.9908 2.1056 26.8475 2.65891 26.6797C2.44676 27.9163 2.25525 29.0347 2.06374 30.1537C2.0087 30.1817 1.95251 30.2102 1.89747 30.2382ZM3.28045 27.1296C4.65311 28.1327 5.97187 29.097 7.14156 29.9516C5.98334 30.7943 4.64737 31.7666 3.30453 32.744C2.31718 31.5102 2.28621 28.8212 3.28045 27.1296ZM9.44595 30.357C8.75675 32.0806 6.17198 33.5085 3.98799 33.372C4.56137 31.6547 7.52228 30.0196 9.44595 30.357ZM4.03444 34.2284C5.73564 33.5473 7.36689 32.8947 8.82212 32.3118C8.99757 33.6974 9.20399 35.3251 9.42244 37.051C7.19373 36.91 5.35434 35.972 4.03444 34.2284ZM5.46615 36.4744C6.91851 36.9014 8.19312 37.2765 9.67129 37.711C9.18793 38.2197 8.75389 38.677 8.24588 39.212C7.29407 38.2745 6.43057 37.4238 5.46615 36.4744ZM12.7107 42.1334C11.9975 41.76 11.3352 41.2815 10.6047 40.951C9.53253 40.4663 9.34733 39.7566 9.85649 38.7661C9.97002 38.5451 10.04 38.3019 10.0486 38.2791C11.8329 39.345 13.5582 40.3755 15.3076 41.4208C14.6551 42.7751 14.2417 42.9338 12.7107 42.1334ZM10.6919 37.6773C12.2045 36.9585 13.6041 36.2934 14.807 35.7213C14.9716 37.1943 15.1545 38.8329 15.3483 40.5668C13.4418 40.2687 11.8599 39.2765 10.6919 37.6773ZM15.9813 34.3694C17.0306 35.7311 17.0495 38.6759 16.018 40.0535C15.1591 38.4669 15.1442 36.0879 15.9813 34.3694ZM22.1508 37.5118C21.2965 39.2953 18.8092 40.6752 16.6017 40.5536C18.0609 38.6256 19.8332 37.6402 22.1508 37.5118ZM17.1412 39.0053V35.5706C18.1085 36.1233 19.1113 36.6959 20.1124 37.268C19.1457 37.8332 18.1251 38.4304 17.1412 39.0053ZM15.436 43.2929C15.6613 42.581 15.8219 42.0746 15.9979 41.5185C17.0409 42.4057 17.999 43.2204 19.1652 44.2132C17.8333 43.8849 16.7129 43.6075 15.436 43.2929ZM22.1863 44.2166C19.9232 44.288 18.1538 43.1159 16.7227 41.4357C18.4611 40.7066 20.1681 39.9907 21.6783 39.3575C21.8268 40.7751 22.0017 42.4536 22.1863 44.2166ZM22.3486 36.8792C20.347 37.2229 17.5495 35.7322 16.6315 33.8447C19.0179 34.0057 20.9312 34.8969 22.3486 36.8792ZM18.7736 33.6341C19.7237 33.0746 20.6612 32.5219 21.656 31.9361V35.2144C20.7271 34.7051 19.7765 34.1839 18.7736 33.6341ZM16.4962 33.3138C17.9755 31.2316 19.8734 30.2896 22.2506 30.0841C21.5224 31.9196 18.898 33.4245 16.4962 33.3138ZM17.1257 31.6433V28.1024C18.1326 28.6899 19.1767 29.2996 20.1732 29.8814C19.1647 30.4643 18.14 31.0569 17.1257 31.6433ZM22.1428 29.3459C20.7982 29.9619 18.1257 28.6396 16.6103 26.5147C19.0144 26.6443 20.7552 27.6251 22.1428 29.3459ZM18.6876 26.2663C19.6383 25.72 20.5981 25.1684 21.6118 24.5855V27.882C20.5872 27.3157 19.6176 26.7802 18.6876 26.2663ZM16.4331 26.0517C18.0007 24.1602 19.6876 23.0132 22.266 22.9344C20.7323 24.9338 18.9519 25.8998 16.4331 26.0517Z" fill="white"/>
<path d="M22.568 44.9921C21.7137 44.9921 20.8508 44.9441 20.0033 44.8488C8.59948 43.5642 0 33.9653 0 22.5212C0 10.1305 10.1241 0.050354 22.568 0.050354V0.392906C10.3139 0.392906 0.344599 10.3195 0.344599 22.5212C0.344599 33.7912 8.81278 43.2428 20.0412 44.5079C20.8766 44.6016 21.7263 44.6495 22.5675 44.6495H22.7246V44.9915L22.568 44.9921Z" fill="white"/>
<path d="M28.3327 44.2513L28.2444 43.9196C37.9855 41.363 44.7891 32.564 44.7891 22.5204C44.7891 13.9594 39.7538 6.08585 31.9604 2.46108L32.1061 2.14993C40.0198 5.83122 45.1337 13.827 45.1337 22.5204C45.1337 32.7199 38.2251 41.6559 28.3327 44.2513Z" fill="white"/>
<path d="M33.4476 22.478H0.237162V22.7989H33.4476V22.478Z" fill="white"/>
<path d="M44.9638 22.4804H36.4182V22.8013H44.9638V22.4804Z" fill="white"/>
<path d="M22.7258 21.9836H22.4036V44.8205H22.7258V21.9836Z" fill="white"/>
<path d="M22.5682 20.771C22.7474 20.771 22.8927 20.6263 22.8927 20.4478C22.8927 20.2694 22.7474 20.1247 22.5682 20.1247C22.3889 20.1247 22.2436 20.2694 22.2436 20.4478C22.2436 20.6263 22.3889 20.771 22.5682 20.771Z" fill="white"/>
<path d="M22.5702 19.9194C22.6988 19.9194 22.803 19.8156 22.803 19.6876C22.803 19.5596 22.6988 19.4558 22.5702 19.4558C22.4416 19.4558 22.3374 19.5596 22.3374 19.6876C22.3374 19.8156 22.4416 19.9194 22.5702 19.9194Z" fill="white"/>
<path d="M22.5635 21.9836C22.8564 21.9836 23.0948 21.7475 23.0948 21.4558C23.0948 21.1642 22.8573 20.9277 22.5644 20.9277C22.2715 20.9277 22.0341 21.1642 22.0341 21.4558C22.0341 21.7475 22.2706 21.9836 22.5635 21.9836Z" fill="white"/>
<path d="M30.5471 2.12275C30.8198 2.12275 31.0408 1.90267 31.0408 1.63119C31.0408 1.35971 30.8198 1.13963 30.5471 1.13963C30.2745 1.13963 30.0535 1.35971 30.0535 1.63119C30.0535 1.90267 30.2745 2.12275 30.5471 2.12275Z" fill="white"/>
<path d="M28.5395 1.44248C28.8122 1.44248 29.0332 1.2224 29.0332 0.950913C29.0332 0.679431 28.8122 0.459351 28.5395 0.459351C28.2669 0.459351 28.0458 0.679431 28.0458 0.950913C28.0458 1.2224 28.2669 1.44248 28.5395 1.44248Z" fill="white"/>
<path d="M26.7899 0.918672C26.9644 0.918672 27.1058 0.777831 27.1058 0.604094C27.1058 0.430358 26.9644 0.289517 26.7899 0.289517C26.6154 0.289517 26.474 0.430358 26.474 0.604094C26.474 0.777831 26.6154 0.918672 26.7899 0.918672Z" fill="white"/>
<path d="M25.025 0.629155C25.1994 0.629155 25.3409 0.488314 25.3409 0.314577C25.3409 0.140841 25.1994 0 25.025 0C24.8505 0 24.709 0.140841 24.709 0.314577C24.709 0.488314 24.8505 0.629155 25.025 0.629155Z" fill="white"/>
<path d="M27.1882 44.7494C27.4609 44.7494 27.6819 44.5293 27.6819 44.2578C27.6819 43.9864 27.4609 43.7663 27.1882 43.7663C26.9156 43.7663 26.6946 43.9864 26.6946 44.2578C26.6946 44.5293 26.9156 44.7494 27.1882 44.7494Z" fill="white"/>
<path d="M25.4496 44.9306C25.6241 44.9306 25.7656 44.7898 25.7656 44.616C25.7656 44.4423 25.6241 44.3014 25.4496 44.3014C25.2752 44.3014 25.1337 44.4423 25.1337 44.616C25.1337 44.7898 25.2752 44.9306 25.4496 44.9306Z" fill="white"/>
<path d="M23.8779 45C24.0524 45 24.1939 44.8592 24.1939 44.6854C24.1939 44.5117 24.0524 44.3708 23.8779 44.3708C23.7035 44.3708 23.562 44.5117 23.562 44.6854C23.562 44.8592 23.7035 45 23.8779 45Z" fill="white"/>
<path d="M35.8392 21.1782L35.3856 16.6896L32.8353 16.1216C32.7212 16.0959 32.6438 15.9931 32.6518 15.8767C32.6598 15.7608 32.7498 15.6694 32.8668 15.6591L35.4057 15.4382L36.0364 10.6265L36.619 15.3748L39.3694 15.8687C39.4749 15.8875 39.5541 15.976 39.5604 16.0828C39.5581 16.1867 39.4813 16.2717 39.3775 16.2854L36.6488 16.6263L36.2222 21.1765L35.8392 21.1782ZM33.8576 15.9572L35.7406 16.3768L36.0232 19.1766L36.2944 16.2849L38.1975 16.0468L36.2721 15.7014L36.0244 13.6786L35.7469 15.7927L33.8576 15.9572Z" fill="white"/>
<path d="M36.1117 7.92954H35.9494V12.2691H36.1117V7.92954Z" fill="white"/>
<path d="M36.0459 7.98314C36.2606 7.98314 36.4346 7.80983 36.4346 7.59605C36.4346 7.38227 36.2606 7.20897 36.0459 7.20897C35.8312 7.20897 35.6571 7.38227 35.6571 7.59605C35.6571 7.80983 35.8312 7.98314 36.0459 7.98314Z" fill="white"/>
<path d="M30.5105 5.85196C30.6593 5.85196 30.7799 5.73182 30.7799 5.58363C30.7799 5.43543 30.6593 5.31529 30.5105 5.31529C30.3616 5.31529 30.241 5.43543 30.241 5.58363C30.241 5.73182 30.3616 5.85196 30.5105 5.85196Z" fill="white"/>
<path d="M26.5942 2.69067C26.7063 2.69067 26.7972 2.60019 26.7972 2.48857C26.7972 2.37695 26.7063 2.28646 26.5942 2.28646C26.4821 2.28646 26.3912 2.37695 26.3912 2.48857C26.3912 2.60019 26.4821 2.69067 26.5942 2.69067Z" fill="white"/>
<path d="M28.7342 6.59694C28.8463 6.59694 28.9371 6.50646 28.9371 6.39484C28.9371 6.28322 28.8463 6.19273 28.7342 6.19273C28.6221 6.19273 28.5312 6.28322 28.5312 6.39484C28.5312 6.50646 28.6221 6.59694 28.7342 6.59694Z" fill="white"/>
<path d="M28.7342 7.35402C28.8463 7.35402 28.9371 7.26354 28.9371 7.15192C28.9371 7.0403 28.8463 6.94981 28.7342 6.94981C28.6221 6.94981 28.5312 7.0403 28.5312 7.15192C28.5312 7.26354 28.6221 7.35402 28.7342 7.35402Z" fill="white"/>
<path d="M26.5944 3.57284C26.7737 3.57284 26.919 3.42817 26.919 3.2497C26.919 3.07124 26.7737 2.92656 26.5944 2.92656C26.4152 2.92656 26.2699 3.07124 26.2699 3.2497C26.2699 3.42817 26.4152 3.57284 26.5944 3.57284Z" fill="white"/>
<path d="M19.3206 9.88544C19.546 9.88544 19.7288 9.70344 19.7288 9.47894C19.7288 9.25444 19.546 9.07244 19.3206 9.07244C19.0951 9.07244 18.9123 9.25444 18.9123 9.47894C18.9123 9.70344 19.0951 9.88544 19.3206 9.88544Z" fill="white"/>
<path d="M31.5969 9.34238C31.7761 9.34238 31.9214 9.19771 31.9214 9.01924C31.9214 8.84078 31.7761 8.6961 31.5969 8.6961C31.4177 8.6961 31.2724 8.84078 31.2724 9.01924C31.2724 9.19771 31.4177 9.34238 31.5969 9.34238Z" fill="white"/>
<path d="M31.5969 11.7729C31.7761 11.7729 31.9214 11.6283 31.9214 11.4498C31.9214 11.2713 31.7761 11.1266 31.5969 11.1266C31.4177 11.1266 31.2724 11.2713 31.2724 11.4498C31.2724 11.6283 31.4177 11.7729 31.5969 11.7729Z" fill="white"/>
<path d="M31.5969 14.2028C31.7761 14.2028 31.9214 14.0581 31.9214 13.8796C31.9214 13.7012 31.7761 13.5565 31.5969 13.5565C31.4177 13.5565 31.2724 13.7012 31.2724 13.8796C31.2724 14.0581 31.4177 14.2028 31.5969 14.2028Z" fill="white"/>
<path d="M28.7289 21.1346C28.9081 21.1346 29.0534 20.9899 29.0534 20.8114C29.0534 20.633 28.9081 20.4883 28.7289 20.4883C28.5496 20.4883 28.4043 20.633 28.4043 20.8114C28.4043 20.9899 28.5496 21.1346 28.7289 21.1346Z" fill="white"/>
<path d="M35.3364 22.9608C35.5156 22.9608 35.6609 22.8161 35.6609 22.6377C35.6609 22.4592 35.5156 22.3145 35.3364 22.3145C35.1571 22.3145 35.0118 22.4592 35.0118 22.6377C35.0118 22.8161 35.1571 22.9608 35.3364 22.9608Z" fill="white"/>
<path d="M28.7309 21.8023C28.8595 21.8023 28.9637 21.6985 28.9637 21.5705C28.9637 21.4425 28.8595 21.3387 28.7309 21.3387C28.6023 21.3387 28.4981 21.4425 28.4981 21.5705C28.4981 21.6985 28.6023 21.8023 28.7309 21.8023Z" fill="white"/>
<path d="M18.2455 9.73754C18.3889 9.73754 18.5052 9.62175 18.5052 9.47892C18.5052 9.33608 18.3889 9.22029 18.2455 9.22029C18.102 9.22029 17.9857 9.33608 17.9857 9.47892C17.9857 9.62175 18.102 9.73754 18.2455 9.73754Z" fill="white"/>
<path d="M26.5939 5.07315C26.9739 5.07315 27.282 4.76641 27.282 4.38804C27.282 4.00967 26.9739 3.70294 26.5939 3.70294C26.2139 3.70294 25.9059 4.00967 25.9059 4.38804C25.9059 4.76641 26.2139 5.07315 26.5939 5.07315Z" fill="white"/>
<path d="M20.9805 10.341C21.4587 10.341 21.8463 9.95507 21.8463 9.47895C21.8463 9.00283 21.4587 8.61686 20.9805 8.61686C20.5023 8.61686 20.1147 9.00283 20.1147 9.47895C20.1147 9.95507 20.5023 10.341 20.9805 10.341Z" fill="white"/>
<path d="M28.7306 20.3304C29.0236 20.3304 29.261 20.094 29.261 19.8023C29.261 19.5106 29.0236 19.2742 28.7306 19.2742C28.4377 19.2742 28.2003 19.5106 28.2003 19.8023C28.2003 20.094 28.4377 20.3304 28.7306 20.3304Z" fill="white"/>
<path d="M30.6126 1.68705H30.4285V5.40945H30.6126V1.68705Z" fill="white"/>
<path d="M26.7115 4.87756H26.485V10.5399H26.7115V4.87756Z" fill="white"/>
<path d="M28.892 7.93309H28.5698V19.4103H28.892V7.93309Z" fill="white"/>
<path d="M22.7258 0.0565505H22.4036V19.115H22.7258V0.0565505Z" fill="white"/>
<path d="M4.73576 9.03367H8.08256C8.19264 9.03367 8.28152 9.12216 8.28152 9.23178C8.28152 9.3414 8.19264 9.42989 8.08256 9.42989H4.4399" fill="white"/>
<path d="M4.2741 9.66077H13.2801L5.82795 22.1074L1.51674 14.9064L1.71398 14.521L5.82852 21.3938L12.6339 10.0273H4.08489L4.2741 9.66077Z" fill="white"/>
<path d="M4.20201 22.4769L0.904527 16.8408L1.59315 14.6861L5.82237 21.7507L10.7878 13.458H12.8067L7.52988 22.4769" fill="white"/>
<path d="M5.84982 9.84396H5.75808V12.7739H5.84982V9.84396Z" fill="white"/>
<path d="M5.86081 19.1149H5.76907V22.0449H5.86081V19.1149Z" fill="white"/>
<path d="M5.82656 11.9142C6.01972 11.9142 6.17632 11.7583 6.17632 11.5659C6.17632 11.3736 6.01972 11.2177 5.82656 11.2177C5.63339 11.2177 5.4768 11.3736 5.4768 11.5659C5.4768 11.7583 5.63339 11.9142 5.82656 11.9142Z" fill="white"/>
<path d="M5.81458 10.8817C5.95233 10.8817 6.064 10.7705 6.064 10.6333C6.064 10.4962 5.95233 10.385 5.81458 10.385C5.67683 10.385 5.56516 10.4962 5.56516 10.6333C5.56516 10.7705 5.67683 10.8817 5.81458 10.8817Z" fill="white"/>
<path d="M5.82549 20.3301C5.96324 20.3301 6.07491 20.2189 6.07491 20.0817C6.07491 19.9446 5.96324 19.8334 5.82549 19.8334C5.68774 19.8334 5.57608 19.9446 5.57608 20.0817C5.57608 20.2189 5.68774 20.3301 5.82549 20.3301Z" fill="white"/>
<path d="M5.82549 18.2872C5.96324 18.2872 6.07491 18.176 6.07491 18.0388C6.07491 17.9017 5.96324 17.7905 5.82549 17.7905C5.68774 17.7905 5.57608 17.9017 5.57608 18.0388C5.57608 18.176 5.68774 18.2872 5.82549 18.2872Z" fill="white"/>
<path d="M5.82464 17.6443C5.90697 17.6443 5.97371 17.5778 5.97371 17.4958C5.97371 17.4139 5.90697 17.3474 5.82464 17.3474C5.7423 17.3474 5.67556 17.4139 5.67556 17.4958C5.67556 17.5778 5.7423 17.6443 5.82464 17.6443Z" fill="white"/>
<path d="M5.81331 13.6223C6.07836 13.6223 6.29323 13.4084 6.29323 13.1445C6.29323 12.8806 6.07836 12.6666 5.81331 12.6666C5.54826 12.6666 5.3334 12.8806 5.3334 13.1445C5.3334 13.4084 5.54826 13.6223 5.81331 13.6223Z" fill="white"/>
<path d="M5.81331 19.3898C6.07836 19.3898 6.29323 19.1758 6.29323 18.9119C6.29323 18.648 6.07836 18.4341 5.81331 18.4341C5.54826 18.4341 5.3334 18.648 5.3334 18.9119C5.3334 19.1758 5.54826 19.3898 5.81331 19.3898Z" fill="white"/>
<path d="M13.7499 22.5565C14.9133 21.8435 15.9752 20.9791 16.9201 19.9754L17.1409 20.1815C16.2533 21.1247 15.2648 21.9462 14.1874 22.6387" fill="white"/>
<path d="M18.5142 18.5082L18.267 18.3341C19.5502 16.5277 20.4092 14.5141 20.8208 12.348L21.1184 12.4039C20.6987 14.6128 19.8226 16.6664 18.5142 18.5082Z" fill="white"/>
<path d="M18.5811 0.536881C19.803 2.28219 20.6808 4.29525 21.1062 6.48816L20.8092 6.54525C20.3832 4.34892 19.4945 2.33642 18.256 0.600253" fill="white"/>
<path d="M17.9402 19.5753C18.0551 19.5753 18.1483 19.4825 18.1483 19.368C18.1483 19.2536 18.0551 19.1608 17.9402 19.1608C17.8252 19.1608 17.732 19.2536 17.732 19.368C17.732 19.4825 17.8252 19.5753 17.9402 19.5753Z" fill="white"/>
<path d="M21.0817 12.2493C21.1466 12.2493 21.1993 12.1969 21.1993 12.1323C21.1993 12.0676 21.1466 12.0152 21.0817 12.0152C21.0167 12.0152 20.9641 12.0676 20.9641 12.1323C20.9641 12.1969 21.0167 12.2493 21.0817 12.2493Z" fill="white"/>
<path d="M21.0651 6.94425C21.1301 6.94425 21.1827 6.89182 21.1827 6.82715C21.1827 6.76249 21.1301 6.71006 21.0651 6.71006C21.0002 6.71006 20.9475 6.76249 20.9475 6.82715C20.9475 6.89182 21.0002 6.94425 21.0651 6.94425Z" fill="white"/>
<path d="M13.6641 7.34035C13.7873 7.34035 13.8871 7.24092 13.8871 7.11827C13.8871 6.99561 13.7873 6.89618 13.6641 6.89618C13.5409 6.89618 13.441 6.99561 13.441 7.11827C13.441 7.24092 13.5409 7.34035 13.6641 7.34035Z" fill="white"/>
<path d="M13.289 6.51625C13.4122 6.51625 13.5121 6.41682 13.5121 6.29416C13.5121 6.17151 13.4122 6.07207 13.289 6.07207C13.1659 6.07207 13.066 6.17151 13.066 6.29416C13.066 6.41682 13.1659 6.51625 13.289 6.51625Z" fill="white"/>
<path d="M12.922 5.76668C13.0008 5.76668 13.0647 5.70303 13.0647 5.62452C13.0647 5.54601 13.0008 5.48236 12.922 5.48236C12.8431 5.48236 12.7792 5.54601 12.7792 5.62452C12.7792 5.70303 12.8431 5.76668 12.922 5.76668Z" fill="white"/>
<path d="M12.4201 5.1435C12.4989 5.1435 12.5628 5.07985 12.5628 5.00134C12.5628 4.92283 12.4989 4.85918 12.4201 4.85918C12.3412 4.85918 12.2773 4.92283 12.2773 5.00134C12.2773 5.07985 12.3412 5.1435 12.4201 5.1435Z" fill="white"/>
<path d="M10.441 17.4589L10.2862 17.1997C15.8399 13.914 13.7678 7.68412 13.746 7.62189L14.0327 7.52369C14.055 7.58878 16.2098 14.0465 10.441 17.4589Z" fill="white"/>
<path d="M22.6957 40.6252V40.2826C28.9719 40.2826 34.8249 36.9182 37.9716 31.5036L38.2698 31.6749C35.0623 37.1957 29.0946 40.6252 22.6957 40.6252Z" fill="white"/>
<path d="M40.4541 25.5536L40.1136 25.4999C40.2592 24.5881 40.3332 23.6541 40.3332 22.7229H40.6778C40.6778 23.6724 40.6026 24.6252 40.4541 25.5536Z" fill="white"/>
<path d="M22.6683 36.3561V36.0135C23.1821 36.0135 23.7004 35.9838 24.2096 35.9256L24.2485 36.2664C23.7262 36.3252 23.1947 36.3561 22.6683 36.3561Z" fill="white"/>
<path d="M27.5715 35.4676L27.4557 35.1427C32.8133 33.2547 36.413 28.1661 36.413 22.4803H36.7581C36.7581 28.3117 33.0662 33.5304 27.5715 35.4676Z" fill="white"/>
<path d="M39.3074 29.0509C39.4867 29.0509 39.632 28.9062 39.632 28.7278C39.632 28.5493 39.4867 28.4046 39.3074 28.4046C39.1282 28.4046 38.9829 28.5493 38.9829 28.7278C38.9829 28.9062 39.1282 29.0509 39.3074 29.0509Z" fill="white"/>
<path d="M39.7948 27.7752C39.9234 27.7752 40.0276 27.6714 40.0276 27.5434C40.0276 27.4154 39.9234 27.3116 39.7948 27.3116C39.6662 27.3116 39.562 27.4154 39.562 27.5434C39.562 27.6714 39.6662 27.7752 39.7948 27.7752Z" fill="white"/>
<path d="M40.0693 26.654C40.1637 26.654 40.2402 26.5778 40.2402 26.4838C40.2402 26.3899 40.1637 26.3137 40.0693 26.3137C39.975 26.3137 39.8985 26.3899 39.8985 26.4838C39.8985 26.5778 39.975 26.654 40.0693 26.654Z" fill="white"/>
<path d="M34.3554 22.8076C34.4498 22.8076 34.5263 22.7314 34.5263 22.6375C34.5263 22.5435 34.4498 22.4673 34.3554 22.4673C34.261 22.4673 34.1845 22.5435 34.1845 22.6375C34.1845 22.7314 34.261 22.8076 34.3554 22.8076Z" fill="white"/>
<path d="M38.6529 30.7248C38.9458 30.7248 39.1832 30.4883 39.1832 30.1967C39.1832 29.905 38.9458 29.6686 38.6529 29.6686C38.3599 29.6686 38.1225 29.905 38.1225 30.1967C38.1225 30.4883 38.3599 30.7248 38.6529 30.7248Z" fill="white"/>
<path d="M26.4345 35.9612C26.6137 35.9612 26.759 35.8165 26.759 35.638C26.759 35.4596 26.6137 35.3149 26.4345 35.3149C26.2552 35.3149 26.1099 35.4596 26.1099 35.638C26.1099 35.8165 26.2552 35.9612 26.4345 35.9612Z" fill="white"/>
<path d="M25.19 36.1701C25.3186 36.1701 25.4228 36.0663 25.4228 35.9383C25.4228 35.8103 25.3186 35.7065 25.19 35.7065C25.0614 35.7065 24.9572 35.8103 24.9572 35.9383C24.9572 36.0663 25.0614 36.1701 25.19 36.1701Z" fill="white"/>
<path d="M27.2318 28.0431C27.6321 28.0431 27.9565 27.72 27.9565 27.3214C27.9565 26.9229 27.6321 26.5998 27.2318 26.5998C26.8315 26.5998 26.507 26.9229 26.507 27.3214C26.507 27.72 26.8315 28.0431 27.2318 28.0431Z" fill="white"/>
<path d="M25.8264 26.383C26.081 26.383 26.2873 26.1775 26.2873 25.924C26.2873 25.6705 26.081 25.465 25.8264 25.465C25.5718 25.465 25.3654 25.6705 25.3654 25.924C25.3654 26.1775 25.5718 26.383 25.8264 26.383Z" fill="white"/>
<path d="M29.4844 30.9825C30.3337 30.9825 31.0222 30.297 31.0222 29.4513C31.0222 28.6057 30.3337 27.9201 29.4844 27.9201C28.6351 27.9201 27.9466 28.6057 27.9466 29.4513C27.9466 30.297 28.6351 30.9825 29.4844 30.9825Z" fill="white"/>
<path d="M65.4291 18.6554C65.4564 18.6554 65.4701 18.6961 65.4701 18.7776C65.4701 18.8592 65.4564 18.8999 65.4291 18.8999C64.9922 18.8999 64.6509 18.8931 64.4052 18.8796L62.9921 18.8592L61.4972 18.8796C61.2514 18.8931 60.9237 18.8999 60.5142 18.8999C60.4869 18.8999 60.4732 18.8592 60.4732 18.7776C60.4732 18.6961 60.4869 18.6554 60.5142 18.6554C61.0466 18.6554 61.4357 18.6214 61.6815 18.5535C61.9272 18.4855 62.091 18.3565 62.173 18.1662C62.2685 17.9624 62.3163 17.6567 62.3163 17.2491V8.832L54.6982 16.9434V17.2491C54.6982 17.6567 54.7391 17.9624 54.821 18.1662C54.9166 18.3565 55.0873 18.4855 55.333 18.5535C55.5788 18.6214 55.9678 18.6554 56.5003 18.6554C56.5276 18.6554 56.5413 18.6961 56.5413 18.7776C56.5413 18.8592 56.5276 18.8999 56.5003 18.8999C56.0771 18.8999 55.7426 18.8931 55.4968 18.8796L54.0223 18.8592L52.6093 18.8796C52.3636 18.8931 52.0222 18.8999 51.5854 18.8999C51.5581 18.8999 51.5444 18.8592 51.5444 18.7776C51.5444 18.6961 51.5581 18.6554 51.5854 18.6554C52.1042 18.6554 52.4864 18.6214 52.7322 18.5535C52.9916 18.4855 53.1622 18.3565 53.2442 18.1662C53.3397 17.9624 53.3875 17.6567 53.3875 17.2491V7.81298C53.3875 7.40537 53.3397 7.10646 53.2442 6.91624C53.1622 6.72603 52.9984 6.59695 52.7527 6.52901C52.5069 6.44749 52.1246 6.40673 51.6058 6.40673C51.5785 6.40673 51.5649 6.36597 51.5649 6.28445C51.5649 6.20293 51.5785 6.16217 51.6058 6.16217L52.6503 6.18255C53.2237 6.20972 53.681 6.22331 54.0223 6.22331C54.4183 6.22331 54.9166 6.20972 55.5173 6.18255L56.5003 6.16217C56.5276 6.16217 56.5413 6.20293 56.5413 6.28445C56.5413 6.36597 56.5276 6.40673 56.5003 6.40673C55.9815 6.40673 55.5924 6.44749 55.333 6.52901C55.0873 6.61054 54.9166 6.7532 54.821 6.957C54.7391 7.14722 54.6982 7.44613 54.6982 7.85374V16.2505L62.3163 8.17983V7.85374C62.3163 7.44613 62.2685 7.14722 62.173 6.957C62.091 6.7532 61.9272 6.61054 61.6815 6.52901C61.4357 6.44749 61.0466 6.40673 60.5142 6.40673C60.4869 6.40673 60.4732 6.36597 60.4732 6.28445C60.4732 6.20293 60.4869 6.16217 60.5142 6.16217L61.4972 6.18255C62.0979 6.20972 62.5962 6.22331 62.9921 6.22331C63.3334 6.22331 63.8044 6.20972 64.4052 6.18255L65.4291 6.16217C65.4564 6.16217 65.4701 6.20293 65.4701 6.28445C65.4701 6.36597 65.4564 6.40673 65.4291 6.40673C64.9103 6.40673 64.528 6.44749 64.2823 6.52901C64.0365 6.59695 63.8659 6.72603 63.7703 6.91624C63.6884 7.10646 63.6474 7.40537 63.6474 7.81298V17.2491C63.6474 17.6567 63.6884 17.9624 63.7703 18.1662C63.8659 18.3565 64.0365 18.4855 64.2823 18.5535C64.528 18.6214 64.9103 18.6554 65.4291 18.6554Z" fill="white"/>
<path d="M80.9536 18.6554C80.9945 18.6554 81.015 18.6961 81.015 18.7776C81.015 18.8592 80.9945 18.8999 80.9536 18.8999C80.5303 18.8999 80.1958 18.8931 79.9501 18.8796L78.537 18.8592L77.0421 18.8796C76.7963 18.8931 76.4687 18.8999 76.0591 18.8999C76.0182 18.8999 75.9977 18.8592 75.9977 18.7776C75.9977 18.6961 76.0182 18.6554 76.0591 18.6554C76.5916 18.6554 76.9807 18.6214 77.2264 18.5535C77.4721 18.4855 77.636 18.3565 77.7179 18.1662C77.8135 17.9624 77.8612 17.6567 77.8612 17.2491V12.4801H69.9973V17.2491C69.9973 17.6567 70.0383 17.9624 70.1202 18.1662C70.2158 18.3565 70.3864 18.4855 70.6322 18.5535C70.8779 18.6214 71.267 18.6554 71.7995 18.6554C71.8268 18.6554 71.8404 18.6961 71.8404 18.7776C71.8404 18.8592 71.8268 18.8999 71.7995 18.8999C71.3763 18.8999 71.0418 18.8931 70.796 18.8796L69.3215 18.8592L67.9085 18.8796C67.6628 18.8931 67.3214 18.8999 66.8846 18.8999C66.8572 18.8999 66.8436 18.8592 66.8436 18.7776C66.8436 18.6961 66.8572 18.6554 66.8846 18.6554C67.4034 18.6554 67.7856 18.6214 68.0314 18.5535C68.2908 18.4855 68.4614 18.3565 68.5433 18.1662C68.6389 17.9624 68.6867 17.6567 68.6867 17.2491V7.81298C68.6867 7.40537 68.6389 7.10646 68.5433 6.91624C68.4614 6.72603 68.2976 6.59695 68.0518 6.52901C67.8061 6.44749 67.4238 6.40673 66.905 6.40673C66.8777 6.40673 66.8641 6.36597 66.8641 6.28445C66.8641 6.20293 66.8777 6.16217 66.905 6.16217L67.9495 6.18255C68.5229 6.20972 68.9802 6.22331 69.3215 6.22331C69.7175 6.22331 70.2158 6.20972 70.8165 6.18255L71.7995 6.16217C71.8268 6.16217 71.8404 6.20293 71.8404 6.28445C71.8404 6.36597 71.8268 6.40673 71.7995 6.40673C71.2807 6.40673 70.8916 6.44749 70.6322 6.52901C70.3864 6.61054 70.2158 6.7532 70.1202 6.957C70.0383 7.14722 69.9973 7.44613 69.9973 7.85374V12.0521H77.8612V7.85374C77.8612 7.44613 77.8135 7.14722 77.7179 6.957C77.636 6.7532 77.4721 6.61054 77.2264 6.52901C76.9807 6.44749 76.5916 6.40673 76.0591 6.40673C76.0182 6.40673 75.9977 6.36597 75.9977 6.28445C75.9977 6.20293 76.0182 6.16217 76.0591 6.16217L77.0421 6.18255C77.6428 6.20972 78.1411 6.22331 78.537 6.22331C78.9057 6.22331 79.3767 6.20972 79.9501 6.18255L80.9536 6.16217C80.9945 6.16217 81.015 6.20293 81.015 6.28445C81.015 6.36597 80.9945 6.40673 80.9536 6.40673C80.4348 6.40673 80.0525 6.44749 79.8067 6.52901C79.561 6.59695 79.3903 6.72603 79.2948 6.91624C79.2129 7.10646 79.1719 7.40537 79.1719 7.81298V17.2491C79.1719 17.6567 79.2129 17.9624 79.2948 18.1662C79.3903 18.3565 79.561 18.4855 79.8067 18.5535C80.0525 18.6214 80.4348 18.6554 80.9536 18.6554Z" fill="white"/>
<path d="M90.2057 5.93798C90.861 5.93798 91.5232 5.99912 92.1922 6.12141C92.8611 6.24369 93.3936 6.42032 93.7895 6.6513C93.9124 6.70565 93.9875 6.76679 94.0148 6.83472C94.0558 6.88907 94.0831 6.99097 94.0967 7.14043L94.322 9.42303C94.322 9.4638 94.2878 9.49097 94.2196 9.50456C94.1513 9.50456 94.1104 9.48418 94.0967 9.44342C93.7964 8.39722 93.2366 7.62956 92.4174 7.14043C91.6119 6.63771 90.6085 6.38635 89.407 6.38635C88.3694 6.38635 87.4615 6.61733 86.6833 7.07929C85.9051 7.52766 85.3044 8.16624 84.8812 8.99505C84.458 9.82385 84.2463 10.7817 84.2463 11.8687C84.2463 13.1323 84.5058 14.3008 85.0246 15.3741C85.557 16.4475 86.2669 17.2967 87.1544 17.9217C88.0554 18.5467 89.0248 18.8592 90.0624 18.8592C91.0453 18.8592 91.8986 18.5942 92.6222 18.0643C93.3458 17.5209 93.8988 16.6921 94.281 15.5779C94.281 15.5372 94.3083 15.5168 94.3629 15.5168C94.4039 15.5168 94.438 15.5236 94.4653 15.5372C94.5063 15.5507 94.5268 15.5711 94.5268 15.5983L94.2401 17.9013C94.2127 18.0643 94.1786 18.173 94.1377 18.2274C94.1104 18.2681 94.0353 18.3157 93.9124 18.37C92.6837 18.8863 91.3867 19.1445 90.0214 19.1445C88.3831 19.1445 87.011 18.8184 85.9051 18.1662C84.8129 17.5005 84.0074 16.6581 83.4886 15.6391C82.9698 14.62 82.7104 13.5467 82.7104 12.419C82.7104 11.169 83.0586 10.048 83.7549 9.05619C84.4511 8.06434 85.3727 7.29668 86.5195 6.7532C87.6663 6.20972 88.8951 5.93798 90.2057 5.93798Z" fill="white"/>
<path d="M99.2767 6.52901C98.4166 6.52901 97.7681 6.74641 97.3313 7.18119C96.908 7.61597 96.6008 8.35646 96.4097 9.40265C96.4097 9.42983 96.3687 9.44342 96.2868 9.44342C96.2186 9.44342 96.1844 9.42983 96.1844 9.40265C96.2391 8.91352 96.3005 8.27494 96.3687 7.4869C96.437 6.69885 96.4711 6.10782 96.4711 5.7138C96.4711 5.64586 96.5053 5.6119 96.5735 5.6119C96.6554 5.6119 96.6964 5.64586 96.6964 5.7138C96.6964 6.01271 97.065 6.16217 97.8023 6.16217C98.9627 6.20293 100.335 6.22331 101.919 6.22331C102.724 6.22331 103.577 6.20972 104.478 6.18255L105.871 6.16217C106.362 6.16217 106.724 6.1282 106.956 6.06027C107.202 5.99233 107.359 5.85646 107.427 5.65266C107.441 5.59831 107.482 5.57113 107.55 5.57113C107.619 5.57113 107.653 5.59831 107.653 5.65266C107.612 6.04668 107.571 6.6445 107.53 7.44613C107.489 8.24776 107.468 8.89994 107.468 9.40265C107.468 9.42983 107.427 9.44342 107.345 9.44342C107.264 9.44342 107.223 9.42983 107.223 9.40265C107.182 8.34287 106.963 7.60238 106.567 7.18119C106.171 6.74641 105.516 6.52901 104.601 6.52901C103.987 6.52901 103.55 6.55619 103.291 6.61054C103.031 6.66488 102.854 6.78037 102.758 6.957C102.663 7.13363 102.615 7.43255 102.615 7.85374V17.2491C102.615 17.6703 102.663 17.976 102.758 18.1662C102.854 18.3565 103.038 18.4855 103.311 18.5535C103.584 18.6214 104.014 18.6554 104.601 18.6554C104.642 18.6554 104.663 18.6961 104.663 18.7776C104.663 18.8592 104.642 18.8999 104.601 18.8999C104.151 18.8999 103.789 18.8931 103.516 18.8796L101.919 18.8592L100.383 18.8796C100.11 18.8931 99.7341 18.8999 99.2563 18.8999C99.229 18.8999 99.2153 18.8592 99.2153 18.7776C99.2153 18.6961 99.229 18.6554 99.2563 18.6554C99.8433 18.6554 100.273 18.6214 100.546 18.5535C100.82 18.4855 101.004 18.3565 101.099 18.1662C101.209 17.9624 101.263 17.6567 101.263 17.2491V7.81298C101.263 7.39179 101.215 7.09967 101.12 6.93662C101.024 6.75999 100.847 6.6513 100.587 6.61054C100.328 6.55619 99.8911 6.52901 99.2767 6.52901Z" fill="white"/>
<path d="M122.946 18.6554C122.973 18.6554 122.987 18.6961 122.987 18.7776C122.987 18.8592 122.973 18.8999 122.946 18.8999C122.509 18.8999 122.168 18.8931 121.922 18.8796L120.509 18.8592L119.014 18.8796C118.768 18.8931 118.441 18.8999 118.031 18.8999C118.004 18.8999 117.99 18.8592 117.99 18.7776C117.99 18.6961 118.004 18.6554 118.031 18.6554C118.564 18.6554 118.953 18.6214 119.198 18.5535C119.444 18.4855 119.608 18.3565 119.69 18.1662C119.785 17.9624 119.833 17.6567 119.833 17.2491V8.832L112.215 16.9434V17.2491C112.215 17.6567 112.256 17.9624 112.338 18.1662C112.434 18.3565 112.604 18.4855 112.85 18.5535C113.096 18.6214 113.485 18.6554 114.017 18.6554C114.045 18.6554 114.058 18.6961 114.058 18.7776C114.058 18.8592 114.045 18.8999 114.017 18.8999C113.594 18.8999 113.26 18.8931 113.014 18.8796L111.539 18.8592L110.126 18.8796C109.881 18.8931 109.539 18.8999 109.102 18.8999C109.075 18.8999 109.061 18.8592 109.061 18.7776C109.061 18.6961 109.075 18.6554 109.102 18.6554C109.621 18.6554 110.003 18.6214 110.249 18.5535C110.509 18.4855 110.679 18.3565 110.761 18.1662C110.857 17.9624 110.904 17.6567 110.904 17.2491V7.81298C110.904 7.40537 110.857 7.10646 110.761 6.91624C110.679 6.72603 110.515 6.59695 110.27 6.52901C110.024 6.44749 109.642 6.40673 109.123 6.40673C109.095 6.40673 109.082 6.36597 109.082 6.28445C109.082 6.20293 109.095 6.16217 109.123 6.16217L110.167 6.18255C110.741 6.20972 111.198 6.22331 111.539 6.22331C111.935 6.22331 112.434 6.20972 113.034 6.18255L114.017 6.16217C114.045 6.16217 114.058 6.20293 114.058 6.28445C114.058 6.36597 114.045 6.40673 114.017 6.40673C113.498 6.40673 113.109 6.44749 112.85 6.52901C112.604 6.61054 112.434 6.7532 112.338 6.957C112.256 7.14722 112.215 7.44613 112.215 7.85374V16.2505L119.833 8.17983V7.85374C119.833 7.44613 119.785 7.14722 119.69 6.957C119.608 6.7532 119.444 6.61054 119.198 6.52901C118.953 6.44749 118.564 6.40673 118.031 6.40673C118.004 6.40673 117.99 6.36597 117.99 6.28445C117.99 6.20293 118.004 6.16217 118.031 6.16217L119.014 6.18255C119.615 6.20972 120.113 6.22331 120.509 6.22331C120.85 6.22331 121.321 6.20972 121.922 6.18255L122.946 6.16217C122.973 6.16217 122.987 6.20293 122.987 6.28445C122.987 6.36597 122.973 6.40673 122.946 6.40673C122.427 6.40673 122.045 6.44749 121.799 6.52901C121.553 6.59695 121.383 6.72603 121.287 6.91624C121.205 7.10646 121.164 7.40537 121.164 7.81298V17.2491C121.164 17.6567 121.205 17.9624 121.287 18.1662C121.383 18.3565 121.553 18.4855 121.799 18.5535C122.045 18.6214 122.427 18.6554 122.946 18.6554Z" fill="white"/>
<path d="M127.555 6.52901C126.695 6.52901 126.047 6.74641 125.61 7.18119C125.187 7.61597 124.879 8.35646 124.688 9.40265C124.688 9.42983 124.647 9.44342 124.565 9.44342C124.497 9.44342 124.463 9.42983 124.463 9.40265C124.518 8.91352 124.579 8.27494 124.647 7.4869C124.716 6.69885 124.75 6.10782 124.75 5.7138C124.75 5.64586 124.784 5.6119 124.852 5.6119C124.934 5.6119 124.975 5.64586 124.975 5.7138C124.975 6.01271 125.344 6.16217 126.081 6.16217C127.241 6.20293 128.613 6.22331 130.197 6.22331C131.003 6.22331 131.856 6.20972 132.757 6.18255L134.149 6.16217C134.641 6.16217 135.003 6.1282 135.235 6.06027C135.481 5.99233 135.638 5.85646 135.706 5.65266C135.72 5.59831 135.76 5.57113 135.829 5.57113C135.897 5.57113 135.931 5.59831 135.931 5.65266C135.89 6.04668 135.849 6.6445 135.808 7.44613C135.767 8.24776 135.747 8.89994 135.747 9.40265C135.747 9.42983 135.706 9.44342 135.624 9.44342C135.542 9.44342 135.501 9.42983 135.501 9.40265C135.46 8.34287 135.242 7.60238 134.846 7.18119C134.45 6.74641 133.794 6.52901 132.88 6.52901C132.265 6.52901 131.829 6.55619 131.569 6.61054C131.31 6.66488 131.132 6.78037 131.037 6.957C130.941 7.13363 130.893 7.43255 130.893 7.85374V17.2491C130.893 17.6703 130.941 17.976 131.037 18.1662C131.132 18.3565 131.317 18.4855 131.59 18.5535C131.863 18.6214 132.293 18.6554 132.88 18.6554C132.921 18.6554 132.941 18.6961 132.941 18.7776C132.941 18.8592 132.921 18.8999 132.88 18.8999C132.429 18.8999 132.067 18.8931 131.794 18.8796L130.197 18.8592L128.661 18.8796C128.388 18.8931 128.013 18.8999 127.535 18.8999C127.507 18.8999 127.494 18.8592 127.494 18.7776C127.494 18.6961 127.507 18.6554 127.535 18.6554C128.122 18.6554 128.552 18.6214 128.825 18.5535C129.098 18.4855 129.282 18.3565 129.378 18.1662C129.487 17.9624 129.542 17.6567 129.542 17.2491V7.81298C129.542 7.39179 129.494 7.09967 129.398 6.93662C129.303 6.75999 129.125 6.6513 128.866 6.61054C128.607 6.55619 128.17 6.52901 127.555 6.52901Z" fill="white"/>
<path d="M149.279 6.16217C149.306 6.16217 149.32 6.20293 149.32 6.28445C149.32 6.36597 149.306 6.40673 149.279 6.40673C148.924 6.40673 148.583 6.5426 148.255 6.81434C147.927 7.07249 147.654 7.43934 147.436 7.91488L142.869 17.7586C142.651 18.2206 142.391 18.5671 142.091 18.798C141.804 19.029 141.442 19.1445 141.006 19.1445C140.61 19.1445 140.268 19.0562 139.982 18.8796C139.695 18.6893 139.552 18.4312 139.552 18.1051C139.552 17.8741 139.627 17.6771 139.777 17.5141C139.941 17.351 140.152 17.2695 140.412 17.2695C140.644 17.2695 140.821 17.3374 140.944 17.4733C141.067 17.5956 141.176 17.7654 141.272 17.9828C141.34 18.1323 141.402 18.2478 141.456 18.3293C141.524 18.3972 141.606 18.4312 141.702 18.4312C141.975 18.4312 142.221 18.1662 142.439 17.6363L143.135 16.1078L138.65 7.85374C138.35 7.31026 138.077 6.93662 137.831 6.73282C137.599 6.51543 137.278 6.40673 136.869 6.40673C136.842 6.40673 136.828 6.36597 136.828 6.28445C136.828 6.20293 136.842 6.16217 136.869 6.16217L137.688 6.18255C138.098 6.20972 138.446 6.22331 138.732 6.22331C139.238 6.22331 139.777 6.20972 140.35 6.18255L141.169 6.16217C141.21 6.16217 141.231 6.20293 141.231 6.28445C141.231 6.36597 141.21 6.40673 141.169 6.40673C140.282 6.40673 139.838 6.63092 139.838 7.07929C139.838 7.22874 139.9 7.41896 140.023 7.64994L143.832 14.62L146.965 7.81298C147.074 7.55483 147.129 7.34423 147.129 7.18119C147.129 6.90945 146.999 6.71244 146.74 6.59016C146.48 6.46787 146.078 6.40673 145.531 6.40673C145.49 6.40673 145.47 6.36597 145.47 6.28445C145.47 6.20293 145.49 6.16217 145.531 6.16217L146.371 6.18255C146.835 6.20972 147.258 6.22331 147.641 6.22331C147.873 6.22331 148.153 6.20972 148.48 6.18255L149.279 6.16217Z" fill="white"/>
<path d="M153.054 6.52901C152.194 6.52901 151.545 6.74641 151.108 7.18119C150.685 7.61597 150.378 8.35646 150.187 9.40265C150.187 9.42983 150.146 9.44342 150.064 9.44342C149.996 9.44342 149.962 9.42983 149.962 9.40265C150.016 8.91352 150.078 8.27494 150.146 7.4869C150.214 6.69885 150.248 6.10782 150.248 5.7138C150.248 5.64586 150.282 5.6119 150.351 5.6119C150.433 5.6119 150.474 5.64586 150.474 5.7138C150.474 6.01271 150.842 6.16217 151.579 6.16217C152.74 6.20293 154.112 6.22331 155.696 6.22331C156.501 6.22331 157.354 6.20972 158.256 6.18255L159.648 6.16217C160.14 6.16217 160.501 6.1282 160.733 6.06027C160.979 5.99233 161.136 5.85646 161.204 5.65266C161.218 5.59831 161.259 5.57113 161.327 5.57113C161.396 5.57113 161.43 5.59831 161.43 5.65266C161.389 6.04668 161.348 6.6445 161.307 7.44613C161.266 8.24776 161.245 8.89994 161.245 9.40265C161.245 9.42983 161.205 9.44342 161.123 9.44342C161.041 9.44342 161 9.42983 161 9.40265C160.959 8.34287 160.74 7.60238 160.344 7.18119C159.948 6.74641 159.293 6.52901 158.378 6.52901C157.764 6.52901 157.327 6.55619 157.068 6.61054C156.808 6.66488 156.631 6.78037 156.535 6.957C156.44 7.13363 156.392 7.43255 156.392 7.85374V17.2491C156.392 17.6703 156.44 17.976 156.535 18.1662C156.631 18.3565 156.815 18.4855 157.088 18.5535C157.361 18.6214 157.791 18.6554 158.378 18.6554C158.419 18.6554 158.44 18.6961 158.44 18.7776C158.44 18.8592 158.419 18.8999 158.378 18.8999C157.928 18.8999 157.566 18.8931 157.293 18.8796L155.696 18.8592L154.16 18.8796C153.887 18.8931 153.511 18.8999 153.033 18.8999C153.006 18.8999 152.992 18.8592 152.992 18.7776C152.992 18.6961 153.006 18.6554 153.033 18.6554C153.62 18.6554 154.051 18.6214 154.324 18.5535C154.597 18.4855 154.781 18.3565 154.877 18.1662C154.986 17.9624 155.04 17.6567 155.04 17.2491V7.81298C155.04 7.39179 154.993 7.09967 154.897 6.93662C154.801 6.75999 154.624 6.6513 154.365 6.61054C154.105 6.55619 153.668 6.52901 153.054 6.52901Z" fill="white"/>
<path d="M65.3062 39.7327C65.3472 39.7327 65.3677 39.7734 65.3677 39.8549C65.3677 39.9365 65.3472 39.9772 65.3062 39.9772C64.8693 39.9772 64.528 39.9704 64.2823 39.9569L62.8897 39.9365L61.4357 39.9569C61.19 39.9704 60.8555 39.9772 60.4323 39.9772C60.3913 39.9772 60.3708 39.9365 60.3708 39.8549C60.3708 39.7734 60.3913 39.7327 60.4323 39.7327C60.951 39.7327 61.3333 39.6987 61.5791 39.6308C61.8248 39.5628 61.9887 39.4338 62.0706 39.2435C62.1525 39.0397 62.1934 38.734 62.1934 38.3264V28.9718C62.1934 28.5098 62.1661 28.2041 62.1115 28.0547C62.0706 27.9052 61.9545 27.8101 61.7634 27.7694C61.5722 27.7286 61.1831 27.7082 60.5961 27.7082H56.3979C55.7835 27.7082 55.374 27.7286 55.1692 27.7694C54.9644 27.8101 54.8347 27.912 54.7801 28.0751C54.7255 28.2245 54.6982 28.5234 54.6982 28.9718V38.3264C54.6982 38.734 54.7391 39.0397 54.821 39.2435C54.9166 39.4338 55.0804 39.5628 55.3125 39.6308C55.5583 39.6987 55.9474 39.7327 56.4798 39.7327C56.5071 39.7327 56.5208 39.7734 56.5208 39.8549C56.5208 39.9365 56.5071 39.9772 56.4798 39.9772C56.0566 39.9772 55.7221 39.9704 55.4764 39.9569L54.0019 39.9365L52.6093 39.9569C52.3636 39.9704 52.0222 39.9772 51.5854 39.9772C51.5581 39.9772 51.5444 39.9365 51.5444 39.8549C51.5444 39.7734 51.5581 39.7327 51.5854 39.7327C52.1042 39.7327 52.4864 39.6987 52.7322 39.6308C52.9916 39.5628 53.1622 39.4338 53.2442 39.2435C53.3397 39.0397 53.3875 38.734 53.3875 38.3264V29.1349C53.3875 28.7137 53.3397 28.3876 53.2442 28.1566C53.1622 27.9256 52.9916 27.7558 52.7322 27.6471C52.4728 27.5384 52.0973 27.484 51.6058 27.484C51.5785 27.484 51.5649 27.4433 51.5649 27.3618C51.5649 27.2802 51.5785 27.2395 51.6058 27.2395C52.07 27.2395 52.5137 27.2463 52.937 27.2599C54.7118 27.287 56.5754 27.3006 58.5277 27.3006C60.3025 27.3006 62.3368 27.2802 64.6304 27.2395H65.3062C65.3472 27.2395 65.3677 27.2802 65.3677 27.3618C65.3677 27.4433 65.3472 27.484 65.3062 27.484C64.5963 27.484 64.1185 27.6063 63.8727 27.8509C63.6406 28.0954 63.5246 28.5234 63.5246 29.1349V38.3264C63.5246 38.734 63.5655 39.0397 63.6474 39.2435C63.743 39.4338 63.9137 39.5628 64.1594 39.6308C64.4052 39.6987 64.7874 39.7327 65.3062 39.7327Z" fill="white"/>
<path d="M69.9797 38.2449C69.9797 38.6797 70.0344 38.999 70.1436 39.2028C70.2664 39.393 70.4917 39.5289 70.8194 39.6104C71.1607 39.6919 71.6931 39.7327 72.4167 39.7327C72.4577 39.7327 72.4782 39.7734 72.4782 39.8549C72.4782 39.9365 72.4577 39.9772 72.4167 39.9772C71.857 39.9772 71.4201 39.9704 71.1061 39.9569L69.3244 39.9365L67.9523 39.9569C67.6929 39.9704 67.3448 39.9772 66.9079 39.9772C66.8806 39.9772 66.867 39.9365 66.867 39.8549C66.867 39.7734 66.8806 39.7327 66.9079 39.7327C67.4267 39.7327 67.8022 39.6987 68.0342 39.6308C68.28 39.5628 68.4438 39.4338 68.5257 39.2435C68.6077 39.0397 68.6486 38.734 68.6486 38.3264V28.8903C68.6486 28.4827 68.6077 28.1838 68.5257 27.9935C68.4438 27.8033 68.28 27.6743 68.0342 27.6063C67.8022 27.5248 67.4267 27.484 66.9079 27.484C66.8806 27.484 66.867 27.4433 66.867 27.3618C66.867 27.2802 66.8806 27.2395 66.9079 27.2395L67.9319 27.2599C68.5053 27.287 68.9626 27.3006 69.3039 27.3006C69.6453 27.3006 70.0275 27.2802 70.4508 27.2395C70.6146 27.2395 70.874 27.2327 71.229 27.2191C71.5839 27.1919 71.8911 27.1783 72.1505 27.1783C73.4066 27.1783 74.41 27.4569 75.1609 28.0139C75.9255 28.571 76.3077 29.4202 76.3077 30.5615C76.3077 31.4582 76.0825 32.2123 75.6319 32.8237C75.195 33.4351 74.6285 33.8903 73.9322 34.1892C73.2359 34.4881 72.5191 34.6376 71.7819 34.6376C71.386 34.6376 71.0583 34.6036 70.7989 34.5357C70.7579 34.5357 70.7375 34.5017 70.7375 34.4338C70.7375 34.393 70.7443 34.3522 70.7579 34.3115C70.7852 34.2707 70.8126 34.2571 70.8399 34.2707C71.0583 34.3251 71.304 34.3522 71.5771 34.3522C72.4782 34.3522 73.2359 34.0601 73.8503 33.4759C74.4783 32.8916 74.7923 32.0492 74.7923 30.9487C74.7923 29.8753 74.4988 29.0329 73.9117 28.4215C73.3246 27.7965 72.5737 27.484 71.659 27.484C71.1675 27.484 70.8126 27.5112 70.5941 27.5656C70.3757 27.6199 70.2187 27.749 70.1231 27.9528C70.0275 28.143 69.9797 28.4691 69.9797 28.931V38.2449Z" fill="white"/>
<path d="M84.6625 40.2218C83.3928 40.2218 82.2596 39.9297 81.263 39.3454C80.28 38.7476 79.5154 37.946 78.9693 36.9406C78.4369 35.9215 78.1707 34.8142 78.1707 33.6185C78.1707 32.2191 78.5256 31.0234 79.2356 30.0316C79.9455 29.0262 80.8534 28.2721 81.9593 27.7694C83.0788 27.2666 84.2188 27.0153 85.3792 27.0153C86.6762 27.0153 87.8162 27.321 88.7992 27.9324C89.7822 28.5302 90.5331 29.3251 91.0519 30.3169C91.5844 31.3088 91.8506 32.3617 91.8506 33.4759C91.8506 34.7123 91.5229 35.8468 90.8676 36.8794C90.2123 37.912 89.3317 38.7272 88.2258 39.3251C87.1336 39.9229 85.9458 40.2218 84.6625 40.2218ZM85.3792 39.7938C86.3076 39.7938 87.1404 39.5696 87.8777 39.1213C88.6286 38.6729 89.2156 38.0139 89.6389 37.1444C90.0757 36.2748 90.2942 35.2422 90.2942 34.0465C90.2942 32.7694 90.0553 31.6348 89.5774 30.643C89.0996 29.6512 88.4238 28.8767 87.55 28.3196C86.6899 27.7626 85.6796 27.484 84.5191 27.484C83.0173 27.484 81.8432 27.9664 80.9968 28.931C80.1503 29.8957 79.7271 31.2204 79.7271 32.9052C79.7271 34.1824 79.966 35.3509 80.4438 36.4107C80.9217 37.4569 81.5907 38.2857 82.4508 38.8971C83.3109 39.4949 84.287 39.7938 85.3792 39.7938Z" fill="white"/>
<path d="M105.662 39.7327C105.785 39.7327 105.853 39.7463 105.867 39.7734C105.894 39.787 105.908 39.8549 105.908 39.9772C105.908 40.0452 105.894 40.2422 105.867 40.5683C105.771 41.3291 105.723 42.2598 105.723 43.3604C105.723 43.4283 105.682 43.4623 105.601 43.4623C105.519 43.4623 105.478 43.4283 105.478 43.3604C105.478 42.1919 105.218 41.3359 104.7 40.7924C104.181 40.249 103.341 39.9772 102.181 39.9772H95.7707C94.8969 39.9772 94.2211 40.2286 93.7433 40.7313C93.2654 41.2476 93.0265 42.124 93.0265 43.3604C93.0265 43.4283 92.9856 43.4623 92.9036 43.4623C92.8217 43.4623 92.7808 43.4283 92.7808 43.3604C92.7808 42.4365 92.7262 41.5397 92.6169 40.6702C92.576 40.412 92.5555 40.1742 92.5555 39.9569C92.5555 39.8482 92.5623 39.7802 92.576 39.7531C92.6033 39.7259 92.6647 39.7123 92.7603 39.7123C93.8116 39.7123 94.7058 39.0805 95.443 37.8169C96.1803 36.5397 96.7264 35.0588 97.0814 33.374C97.45 31.6892 97.6343 30.2694 97.6343 29.1145C97.6343 28.734 97.5865 28.4351 97.4909 28.2177C97.409 27.9868 97.2179 27.8101 96.9175 27.6878C96.6172 27.552 96.1598 27.484 95.5454 27.484C95.5181 27.484 95.5045 27.4433 95.5045 27.3618C95.5045 27.2802 95.5181 27.2395 95.5454 27.2395H105.293C105.321 27.2395 105.334 27.2802 105.334 27.3618C105.334 27.4433 105.321 27.484 105.293 27.484C104.775 27.484 104.392 27.5248 104.147 27.6063C103.901 27.6743 103.73 27.8033 103.635 27.9935C103.553 28.1838 103.512 28.4827 103.512 28.8903V38.3264C103.512 38.8563 103.539 39.2028 103.594 39.3658C103.648 39.5289 103.805 39.6308 104.065 39.6715C104.324 39.7123 104.857 39.7327 105.662 39.7327ZM102.181 28.931C102.181 28.4691 102.153 28.1634 102.099 28.0139C102.058 27.8645 101.942 27.7762 101.751 27.749C101.559 27.7082 101.17 27.6878 100.583 27.6878H99.5798C99.1702 27.6878 98.8835 27.749 98.7197 27.8713C98.5558 27.98 98.4466 28.177 98.392 28.4623C98.3374 28.7476 98.2759 29.2843 98.2077 30.0723C98.1258 30.874 97.9619 31.8862 97.7162 33.109C97.4841 34.3183 97.1291 35.5479 96.6513 36.7979C96.1871 38.0479 95.6069 38.9582 94.9106 39.5289H100.481C101.109 39.5289 101.518 39.5153 101.71 39.4881C101.914 39.4473 102.044 39.3522 102.099 39.2028C102.153 39.0533 102.181 38.7476 102.181 38.2857V28.931Z" fill="white"/>
<path d="M107.613 40.2218C107.313 40.2218 107.067 40.1607 106.876 40.0384C106.698 39.9161 106.609 39.7259 106.609 39.4677C106.609 39.0329 106.903 38.8156 107.49 38.8156H107.92C108.698 38.8156 109.367 38.3196 109.927 37.3278C110.5 36.3223 110.931 35.0791 111.217 33.5982C111.518 32.1172 111.668 30.6838 111.668 29.2979C111.668 28.6729 111.531 28.2177 111.258 27.9324C110.985 27.6335 110.446 27.484 109.64 27.484C109.599 27.484 109.579 27.4433 109.579 27.3618C109.579 27.2802 109.599 27.2395 109.64 27.2395H119.429C119.47 27.2395 119.491 27.2802 119.491 27.3618C119.491 27.4433 119.47 27.484 119.429 27.484C118.91 27.484 118.528 27.5248 118.282 27.6063C118.037 27.6743 117.866 27.8033 117.771 27.9935C117.689 28.1838 117.648 28.4827 117.648 28.8903V38.3264C117.648 38.734 117.689 39.0397 117.771 39.2435C117.866 39.4338 118.037 39.5628 118.282 39.6308C118.528 39.6987 118.91 39.7327 119.429 39.7327C119.47 39.7327 119.491 39.7734 119.491 39.8549C119.491 39.9365 119.47 39.9772 119.429 39.9772C119.006 39.9772 118.672 39.9704 118.426 39.9569L117.013 39.9365L115.559 39.9569C115.313 39.9704 114.979 39.9772 114.555 39.9772C114.514 39.9772 114.494 39.9365 114.494 39.8549C114.494 39.7734 114.514 39.7327 114.555 39.7327C115.088 39.7327 115.47 39.6987 115.702 39.6308C115.948 39.5628 116.112 39.4338 116.194 39.2435C116.289 39.0397 116.337 38.734 116.337 38.3264V28.9718C116.337 28.5098 116.31 28.2041 116.255 28.0547C116.2 27.9052 116.078 27.8101 115.886 27.7694C115.695 27.7286 115.306 27.7082 114.719 27.7082H113.675C113.265 27.7082 112.958 27.7422 112.753 27.8101C112.548 27.8781 112.398 28.0275 112.303 28.2585C112.207 28.4759 112.159 28.8223 112.159 29.2979C112.159 30.6838 112.016 32.2191 111.729 33.9039C111.456 35.5886 110.978 37.0628 110.296 38.3264C109.627 39.59 108.732 40.2218 107.613 40.2218Z" fill="white"/>
<path d="M129.912 36.9406C129.912 36.9134 129.94 36.8998 129.994 36.8998C130.035 36.8998 130.069 36.9066 130.097 36.9202C130.138 36.9338 130.158 36.9541 130.158 36.9813C130.035 37.8373 129.974 38.734 129.974 39.6715C129.974 39.7802 129.947 39.8617 129.892 39.9161C129.851 39.9569 129.769 39.9772 129.646 39.9772H121.066C121.038 39.9772 121.025 39.9365 121.025 39.8549C121.025 39.7734 121.038 39.7327 121.066 39.7327C121.584 39.7327 121.96 39.6987 122.192 39.6308C122.438 39.5628 122.601 39.4338 122.683 39.2435C122.779 39.0397 122.827 38.734 122.827 38.3264V28.8903C122.827 28.4827 122.779 28.1838 122.683 27.9935C122.601 27.8033 122.438 27.6743 122.192 27.6063C121.96 27.5248 121.584 27.484 121.066 27.484C121.038 27.484 121.025 27.4433 121.025 27.3618C121.025 27.2802 121.038 27.2395 121.066 27.2395H129.298C129.421 27.2395 129.482 27.3006 129.482 27.4229L129.523 29.9297C129.523 29.9704 129.489 29.9976 129.421 30.0112C129.353 30.0112 129.312 29.9908 129.298 29.9501C129.257 29.23 129.039 28.6729 128.643 28.2789C128.247 27.8713 127.721 27.6675 127.066 27.6675H125.817C125.339 27.6675 124.984 27.7082 124.752 27.7897C124.533 27.8577 124.376 27.9867 124.281 28.177C124.199 28.3536 124.158 28.6253 124.158 28.9922V33.1294H126.656C127.312 33.1294 127.776 33.0207 128.049 32.8033C128.336 32.5859 128.479 32.2191 128.479 31.7028C128.479 31.6756 128.52 31.662 128.602 31.662C128.684 31.662 128.725 31.6756 128.725 31.7028L128.704 33.3536C128.704 33.7476 128.711 34.0465 128.725 34.2503L128.745 35.2286C128.745 35.2558 128.704 35.2694 128.622 35.2694C128.54 35.2694 128.499 35.2558 128.499 35.2286C128.499 34.6308 128.349 34.2028 128.049 33.9446C127.762 33.6865 127.277 33.5574 126.595 33.5574H124.158V38.2449C124.158 38.6253 124.199 38.9039 124.281 39.0805C124.363 39.2571 124.513 39.3794 124.731 39.4473C124.95 39.5153 125.291 39.5492 125.755 39.5492H127.394C128.049 39.5492 128.595 39.3183 129.032 38.8563C129.469 38.3944 129.762 37.7558 129.912 36.9406Z" fill="white"/>
<path d="M145.97 39.7327C146.011 39.7327 146.032 39.7734 146.032 39.8549C146.032 39.9365 146.011 39.9772 145.97 39.9772C145.547 39.9772 145.212 39.9704 144.967 39.9569L143.554 39.9365L142.059 39.9569C141.813 39.9704 141.485 39.9772 141.076 39.9772C141.035 39.9772 141.014 39.9365 141.014 39.8549C141.014 39.7734 141.035 39.7327 141.076 39.7327C141.608 39.7327 141.997 39.6987 142.243 39.6308C142.489 39.5628 142.653 39.4338 142.734 39.2435C142.83 39.0397 142.878 38.734 142.878 38.3264V33.5574H135.014V38.3264C135.014 38.734 135.055 39.0397 135.137 39.2435C135.232 39.4338 135.403 39.5628 135.649 39.6308C135.894 39.6987 136.284 39.7327 136.816 39.7327C136.843 39.7327 136.857 39.7734 136.857 39.8549C136.857 39.9365 136.843 39.9772 136.816 39.9772C136.393 39.9772 136.058 39.9704 135.813 39.9569L134.338 39.9365L132.925 39.9569C132.679 39.9704 132.338 39.9772 131.901 39.9772C131.874 39.9772 131.86 39.9365 131.86 39.8549C131.86 39.7734 131.874 39.7327 131.901 39.7327C132.42 39.7327 132.802 39.6987 133.048 39.6308C133.307 39.5628 133.478 39.4338 133.56 39.2435C133.655 39.0397 133.703 38.734 133.703 38.3264V28.8903C133.703 28.4827 133.655 28.1838 133.56 27.9935C133.478 27.8033 133.314 27.6743 133.068 27.6063C132.823 27.5248 132.44 27.484 131.922 27.484C131.894 27.484 131.881 27.4433 131.881 27.3618C131.881 27.2802 131.894 27.2395 131.922 27.2395L132.966 27.2599C133.539 27.287 133.997 27.3006 134.338 27.3006C134.734 27.3006 135.232 27.287 135.833 27.2599L136.816 27.2395C136.843 27.2395 136.857 27.2802 136.857 27.3618C136.857 27.4433 136.843 27.484 136.816 27.484C136.297 27.484 135.908 27.5248 135.649 27.6063C135.403 27.6878 135.232 27.8305 135.137 28.0343C135.055 28.2245 135.014 28.5234 135.014 28.931V33.1294H142.878V28.931C142.878 28.5234 142.83 28.2245 142.734 28.0343C142.653 27.8305 142.489 27.6878 142.243 27.6063C141.997 27.5248 141.608 27.484 141.076 27.484C141.035 27.484 141.014 27.4433 141.014 27.3618C141.014 27.2802 141.035 27.2395 141.076 27.2395L142.059 27.2599C142.659 27.287 143.158 27.3006 143.554 27.3006C143.922 27.3006 144.393 27.287 144.967 27.2599L145.97 27.2395C146.011 27.2395 146.032 27.2802 146.032 27.3618C146.032 27.4433 146.011 27.484 145.97 27.484C145.451 27.484 145.069 27.5248 144.823 27.6063C144.578 27.6743 144.407 27.8033 144.311 27.9935C144.229 28.1838 144.188 28.4827 144.188 28.8903V38.3264C144.188 38.734 144.229 39.0397 144.311 39.2435C144.407 39.4338 144.578 39.5628 144.823 39.6308C145.069 39.6987 145.451 39.7327 145.97 39.7327Z" fill="white"/>
<path d="M161.284 39.7327C161.311 39.7327 161.325 39.7734 161.325 39.8549C161.325 39.9365 161.311 39.9772 161.284 39.9772C160.847 39.9772 160.506 39.9704 160.26 39.9569L158.847 39.9365L157.352 39.9569C157.106 39.9704 156.779 39.9772 156.369 39.9772C156.342 39.9772 156.328 39.9365 156.328 39.8549C156.328 39.7734 156.342 39.7327 156.369 39.7327C156.902 39.7327 157.291 39.6987 157.536 39.6308C157.782 39.5628 157.946 39.4338 158.028 39.2435C158.123 39.0397 158.171 38.734 158.171 38.3264V29.9093L150.553 38.0207V38.3264C150.553 38.734 150.594 39.0397 150.676 39.2435C150.772 39.4338 150.942 39.5628 151.188 39.6308C151.434 39.6987 151.823 39.7327 152.355 39.7327C152.383 39.7327 152.396 39.7734 152.396 39.8549C152.396 39.9365 152.383 39.9772 152.355 39.9772C151.932 39.9772 151.597 39.9704 151.352 39.9569L149.877 39.9365L148.464 39.9569C148.218 39.9704 147.877 39.9772 147.44 39.9772C147.413 39.9772 147.399 39.9365 147.399 39.8549C147.399 39.7734 147.413 39.7327 147.44 39.7327C147.959 39.7327 148.341 39.6987 148.587 39.6308C148.846 39.5628 149.017 39.4338 149.099 39.2435C149.195 39.0397 149.242 38.734 149.242 38.3264V28.8903C149.242 28.4827 149.195 28.1838 149.099 27.9935C149.017 27.8033 148.853 27.6743 148.608 27.6063C148.362 27.5248 147.98 27.484 147.461 27.484C147.433 27.484 147.42 27.4433 147.42 27.3618C147.42 27.2802 147.433 27.2395 147.461 27.2395L148.505 27.2599C149.079 27.287 149.536 27.3006 149.877 27.3006C150.273 27.3006 150.771 27.287 151.372 27.2599L152.355 27.2395C152.383 27.2395 152.396 27.2802 152.396 27.3618C152.396 27.4433 152.383 27.484 152.355 27.484C151.836 27.484 151.447 27.5248 151.188 27.6063C150.942 27.6878 150.772 27.8305 150.676 28.0343C150.594 28.2245 150.553 28.5234 150.553 28.931V37.3278L158.171 29.2571V28.931C158.171 28.5234 158.123 28.2245 158.028 28.0343C157.946 27.8305 157.782 27.6878 157.536 27.6063C157.291 27.5248 156.902 27.484 156.369 27.484C156.342 27.484 156.328 27.4433 156.328 27.3618C156.328 27.2802 156.342 27.2395 156.369 27.2395L157.352 27.2599C157.953 27.287 158.451 27.3006 158.847 27.3006C159.188 27.3006 159.659 27.287 160.26 27.2599L161.284 27.2395C161.311 27.2395 161.325 27.2802 161.325 27.3618C161.325 27.4433 161.311 27.484 161.284 27.484C160.765 27.484 160.383 27.5248 160.137 27.6063C159.891 27.6743 159.721 27.8033 159.625 27.9935C159.543 28.1838 159.502 28.4827 159.502 28.8903V38.3264C159.502 38.734 159.543 39.0397 159.625 39.2435C159.721 39.4338 159.891 39.5628 160.137 39.6308C160.383 39.6987 160.765 39.7327 161.284 39.7327Z" fill="white"/>
<path d="M173.45 39.7327C173.477 39.7327 173.491 39.7734 173.491 39.8549C173.491 39.9365 173.477 39.9772 173.45 39.9772C173.013 39.9772 172.672 39.9704 172.426 39.9569L171.013 39.9365L169.579 39.9569C169.334 39.9704 168.999 39.9772 168.576 39.9772C168.549 39.9772 168.535 39.9365 168.535 39.8549C168.535 39.7734 168.549 39.7327 168.576 39.7327C169.095 39.7327 169.477 39.6987 169.723 39.6308C169.969 39.5628 170.132 39.4338 170.214 39.2435C170.296 39.0397 170.337 38.734 170.337 38.3264V33.374C169.887 33.4011 169.491 33.5031 169.149 33.6797C168.822 33.8427 168.474 34.1484 168.105 34.5968C167.75 35.0316 167.32 35.6838 166.815 36.5533C166.146 37.6946 165.634 38.5098 165.279 38.999C164.938 39.4881 164.692 39.7734 164.542 39.8549C164.405 39.9365 164.221 39.9772 163.989 39.9772H161.879C161.838 39.9772 161.818 39.9365 161.818 39.8549C161.818 39.7734 161.838 39.7327 161.879 39.7327C162.589 39.7191 163.204 39.4473 163.722 38.9174C164.241 38.374 164.869 37.4501 165.607 36.1457C166.125 35.249 166.603 34.5968 167.04 34.1892C167.477 33.7816 167.982 33.5098 168.555 33.374C167.368 33.2653 166.46 32.946 165.832 32.4161C165.217 31.8726 164.91 31.1729 164.91 30.3169C164.91 29.7055 165.067 29.162 165.381 28.6865C165.709 28.2109 166.153 27.8441 166.712 27.5859C167.286 27.3142 167.927 27.1783 168.637 27.1783C168.951 27.1783 169.313 27.1987 169.723 27.2395C169.887 27.2531 170.078 27.2666 170.296 27.2802C170.515 27.2938 170.754 27.3006 171.013 27.3006C171.368 27.3006 171.832 27.287 172.406 27.2599L173.45 27.2395C173.477 27.2395 173.491 27.2802 173.491 27.3618C173.491 27.4433 173.477 27.484 173.45 27.484C172.917 27.484 172.528 27.5248 172.283 27.6063C172.037 27.6743 171.873 27.8033 171.791 27.9935C171.709 28.1838 171.668 28.4827 171.668 28.8903V38.3264C171.668 38.734 171.709 39.0397 171.791 39.2435C171.887 39.4338 172.051 39.5628 172.283 39.6308C172.528 39.6987 172.917 39.7327 173.45 39.7327ZM166.303 29.8074C166.303 30.7992 166.583 31.5941 167.142 32.1919C167.702 32.7897 168.515 33.0886 169.579 33.0886C169.757 33.0886 170.009 33.0751 170.337 33.0479V28.931C170.337 28.3876 170.173 28.0071 169.846 27.7897C169.518 27.5588 169.108 27.4433 168.617 27.4433C167.074 27.4433 166.303 28.2313 166.303 29.8074Z" fill="white"/>
<path d="M199.092 39.7327C199.119 39.7327 199.133 39.7734 199.133 39.8549C199.133 39.9365 199.119 39.9772 199.092 39.9772H196.491C196.327 39.9772 196.184 39.9297 196.061 39.8346C195.938 39.7259 195.727 39.4609 195.426 39.0397C195.14 38.6049 194.594 37.7761 193.788 36.5533C193.16 35.5886 192.703 34.9229 192.416 34.556C192.129 34.1756 191.829 33.9175 191.515 33.7816C191.215 33.6321 190.791 33.5574 190.245 33.5574L189.795 33.5778V38.3264C189.795 38.7476 189.836 39.0533 189.918 39.2435C189.999 39.4338 190.156 39.5628 190.389 39.6308C190.634 39.6987 191.023 39.7327 191.556 39.7327C191.597 39.7327 191.617 39.7734 191.617 39.8549C191.617 39.9365 191.597 39.9772 191.556 39.9772C191.133 39.9772 190.798 39.9704 190.552 39.9569L189.098 39.9365L187.706 39.9569C187.46 39.9704 187.119 39.9772 186.682 39.9772C186.655 39.9772 186.641 39.9365 186.641 39.8549C186.641 39.7734 186.655 39.7327 186.682 39.7327C187.214 39.7327 187.603 39.6987 187.849 39.6308C188.095 39.5628 188.259 39.4338 188.341 39.2435C188.436 39.0397 188.484 38.734 188.484 38.3264V33.5982C188.238 33.571 188.068 33.5574 187.972 33.5574C187.44 33.5574 187.016 33.6321 186.702 33.7816C186.402 33.9175 186.102 34.1688 185.801 34.5357C185.515 34.9025 185.057 35.5615 184.429 36.5126L184.02 37.1647C183.514 37.9528 183.105 38.5778 182.791 39.0397C182.477 39.4881 182.265 39.7598 182.156 39.8549C182.047 39.9365 181.91 39.9772 181.746 39.9772H179.166C179.139 39.9772 179.125 39.9365 179.125 39.8549C179.125 39.7734 179.139 39.7327 179.166 39.7327C179.685 39.7191 180.142 39.59 180.538 39.3454C180.948 39.0873 181.344 38.7272 181.726 38.2653C182.108 37.7897 182.613 37.0832 183.241 36.1457C183.965 35.0452 184.47 34.3251 184.757 33.9854C185.057 33.6321 185.399 33.4011 185.781 33.2925L183.385 29.7666C182.811 28.9243 182.245 28.3332 181.685 27.9935C181.139 27.6539 180.484 27.484 179.719 27.484C179.692 27.484 179.678 27.4433 179.678 27.3618C179.678 27.2802 179.692 27.2395 179.719 27.2395L180.477 27.2599C180.968 27.287 181.439 27.3006 181.89 27.3006C182.34 27.3006 182.839 27.287 183.385 27.2599L184.327 27.2395C184.368 27.2395 184.388 27.2802 184.388 27.3618C184.388 27.4433 184.368 27.484 184.327 27.484C183.945 27.484 183.665 27.5248 183.487 27.6063C183.323 27.6743 183.241 27.7965 183.241 27.9732C183.241 28.1362 183.31 28.3536 183.446 28.6253C183.596 28.8971 183.828 29.2911 184.143 29.8074L186.211 33.2313C186.347 33.2041 186.586 33.1906 186.928 33.1906L188.054 33.2109C188.136 33.2245 188.279 33.2313 188.484 33.2313V28.8903C188.484 28.4963 188.423 28.2041 188.3 28.0139C188.19 27.8101 187.999 27.6743 187.726 27.6063C187.453 27.5248 187.051 27.484 186.518 27.484C186.491 27.484 186.477 27.4433 186.477 27.3618C186.477 27.2802 186.491 27.2395 186.518 27.2395L187.624 27.2599C188.252 27.287 188.743 27.3006 189.098 27.3006C189.494 27.3006 190.02 27.287 190.675 27.2599L191.761 27.2395C191.788 27.2395 191.802 27.2802 191.802 27.3618C191.802 27.4433 191.788 27.484 191.761 27.484C191.242 27.484 190.839 27.5248 190.552 27.6063C190.279 27.6878 190.081 27.8305 189.958 28.0343C189.849 28.2381 189.795 28.537 189.795 28.931V33.2313C190.641 33.2041 191.146 33.1906 191.31 33.1906C191.651 33.1906 191.89 33.1973 192.027 33.2109L194.095 29.8278C194.409 29.3251 194.635 28.931 194.771 28.6457C194.921 28.3604 194.996 28.1362 194.996 27.9732C194.996 27.7965 194.914 27.6743 194.751 27.6063C194.587 27.5248 194.314 27.484 193.931 27.484C193.89 27.484 193.87 27.4433 193.87 27.3618C193.87 27.2802 193.89 27.2395 193.931 27.2395L194.873 27.2599C195.42 27.287 195.918 27.3006 196.368 27.3006C196.819 27.3006 197.29 27.287 197.781 27.2599L198.539 27.2395C198.566 27.2395 198.58 27.2802 198.58 27.3618C198.58 27.4433 198.566 27.484 198.539 27.484C197.775 27.484 197.112 27.6539 196.553 27.9935C196.007 28.3332 195.447 28.9243 194.873 29.7666L192.457 33.2925C192.826 33.3876 193.146 33.5914 193.419 33.9039C193.692 34.2164 194.143 34.8414 194.771 35.7789L195.017 36.1457C195.645 37.0832 196.15 37.7897 196.532 38.2653C196.915 38.7272 197.304 39.0873 197.7 39.3454C198.109 39.59 198.573 39.7191 199.092 39.7327Z" fill="white"/>
<path d="M213.841 39.7327C213.869 39.7327 213.882 39.7734 213.882 39.8549C213.882 39.9365 213.869 39.9772 213.841 39.9772C213.404 39.9772 213.063 39.9704 212.817 39.9569L211.404 39.9365L209.909 39.9569C209.664 39.9704 209.336 39.9772 208.926 39.9772C208.899 39.9772 208.885 39.9365 208.885 39.8549C208.885 39.7734 208.899 39.7327 208.926 39.7327C209.459 39.7327 209.848 39.6987 210.094 39.6308C210.339 39.5628 210.503 39.4338 210.585 39.2435C210.681 39.0397 210.728 38.734 210.728 38.3264V29.9093L203.11 38.0207V38.3264C203.11 38.734 203.151 39.0397 203.233 39.2435C203.329 39.4338 203.499 39.5628 203.745 39.6308C203.991 39.6987 204.38 39.7327 204.912 39.7327C204.94 39.7327 204.953 39.7734 204.953 39.8549C204.953 39.9365 204.94 39.9772 204.912 39.9772C204.489 39.9772 204.155 39.9704 203.909 39.9569L202.434 39.9365L201.021 39.9569C200.776 39.9704 200.434 39.9772 199.997 39.9772C199.97 39.9772 199.957 39.9365 199.957 39.8549C199.957 39.7734 199.97 39.7327 199.997 39.7327C200.516 39.7327 200.899 39.6987 201.144 39.6308C201.404 39.5628 201.574 39.4338 201.656 39.2435C201.752 39.0397 201.8 38.734 201.8 38.3264V28.8903C201.8 28.4827 201.752 28.1838 201.656 27.9935C201.574 27.8033 201.411 27.6743 201.165 27.6063C200.919 27.5248 200.537 27.484 200.018 27.484C199.991 27.484 199.977 27.4433 199.977 27.3618C199.977 27.2802 199.991 27.2395 200.018 27.2395L201.062 27.2599C201.636 27.287 202.093 27.3006 202.434 27.3006C202.83 27.3006 203.329 27.287 203.929 27.2599L204.912 27.2395C204.94 27.2395 204.953 27.2802 204.953 27.3618C204.953 27.4433 204.94 27.484 204.912 27.484C204.394 27.484 204.005 27.5248 203.745 27.6063C203.499 27.6878 203.329 27.8305 203.233 28.0343C203.151 28.2245 203.11 28.5234 203.11 28.931V37.3278L210.728 29.2571V28.931C210.728 28.5234 210.681 28.2245 210.585 28.0343C210.503 27.8305 210.339 27.6878 210.094 27.6063C209.848 27.5248 209.459 27.484 208.926 27.484C208.899 27.484 208.885 27.4433 208.885 27.3618C208.885 27.2802 208.899 27.2395 208.926 27.2395L209.909 27.2599C210.51 27.287 211.008 27.3006 211.404 27.3006C211.746 27.3006 212.217 27.287 212.817 27.2599L213.841 27.2395C213.869 27.2395 213.882 27.2802 213.882 27.3618C213.882 27.4433 213.869 27.484 213.841 27.484C213.322 27.484 212.94 27.5248 212.694 27.6063C212.449 27.6743 212.278 27.8033 212.182 27.9935C212.101 28.1838 212.06 28.4827 212.06 28.8903V38.3264C212.06 38.734 212.101 39.0397 212.182 39.2435C212.278 39.4338 212.449 39.5628 212.694 39.6308C212.94 39.6987 213.322 39.7327 213.841 39.7327Z" fill="white"/>
<path d="M220.642 33.1294C221.597 33.1973 222.369 33.5234 222.956 34.1077C223.557 34.6919 223.857 35.4324 223.857 36.3291C223.857 37.0764 223.645 37.749 223.222 38.3468C222.812 38.931 222.253 39.393 221.543 39.7327C220.833 40.0588 220.048 40.2218 219.188 40.2218C218.628 40.2218 218.075 40.1539 217.529 40.018C216.996 39.8821 216.58 39.6919 216.28 39.4473C216.157 39.3794 216.082 39.3251 216.054 39.2843C216.027 39.23 216.007 39.1281 215.993 38.9786L215.747 36.7164C215.747 36.6756 215.781 36.6484 215.85 36.6348C215.932 36.6213 215.979 36.6348 215.993 36.6756C216.184 37.7761 216.628 38.5914 217.324 39.1213C218.02 39.6376 218.785 39.8957 219.618 39.8957C220.532 39.8957 221.208 39.59 221.645 38.9786C222.096 38.3672 222.321 37.6063 222.321 36.696C222.321 35.5954 222.007 34.7666 221.379 34.2096C220.765 33.6389 219.87 33.3536 218.696 33.3536C218.642 33.3536 218.614 33.3128 218.614 33.2313C218.614 33.1498 218.642 33.109 218.696 33.109C219.761 33.109 220.56 32.8509 221.092 32.3346C221.638 31.8183 221.911 31.1117 221.911 30.215C221.911 29.3183 221.686 28.605 221.236 28.0751C220.785 27.5452 220.184 27.2802 219.433 27.2802C218.723 27.2802 218.089 27.5452 217.529 28.0751C216.983 28.5914 216.573 29.359 216.3 30.3781C216.3 30.4052 216.273 30.4188 216.218 30.4188C216.191 30.4188 216.157 30.412 216.116 30.3984C216.089 30.3713 216.075 30.3509 216.075 30.3373L216.362 28.0343C216.389 27.8713 216.416 27.7626 216.444 27.7082C216.471 27.6539 216.546 27.6063 216.669 27.5656C217.72 27.1987 218.73 27.0153 219.7 27.0153C220.86 27.0153 221.748 27.2802 222.362 27.8101C222.99 28.34 223.304 28.999 223.304 29.787C223.304 30.5343 223.031 31.2204 222.485 31.8454C221.952 32.4569 221.338 32.8848 220.642 33.1294Z" fill="white"/>
<path d="M239.645 39.7327C239.686 39.7327 239.707 39.7734 239.707 39.8549C239.707 39.9365 239.686 39.9772 239.645 39.9772C239.222 39.9772 238.887 39.9704 238.642 39.9569L237.229 39.9365L235.734 39.9569C235.488 39.9704 235.16 39.9772 234.751 39.9772C234.71 39.9772 234.689 39.9365 234.689 39.8549C234.689 39.7734 234.71 39.7327 234.751 39.7327C235.283 39.7327 235.672 39.6987 235.918 39.6308C236.164 39.5628 236.328 39.4338 236.41 39.2435C236.505 39.0397 236.553 38.734 236.553 38.3264V33.5574H228.689V38.3264C228.689 38.734 228.73 39.0397 228.812 39.2435C228.907 39.4338 229.078 39.5628 229.324 39.6308C229.57 39.6987 229.959 39.7327 230.491 39.7327C230.518 39.7327 230.532 39.7734 230.532 39.8549C230.532 39.9365 230.518 39.9772 230.491 39.9772C230.068 39.9772 229.733 39.9704 229.488 39.9569L228.013 39.9365L226.6 39.9569C226.354 39.9704 226.013 39.9772 225.576 39.9772C225.549 39.9772 225.535 39.9365 225.535 39.8549C225.535 39.7734 225.549 39.7327 225.576 39.7327C226.095 39.7327 226.477 39.6987 226.723 39.6308C226.982 39.5628 227.153 39.4338 227.235 39.2435C227.331 39.0397 227.378 38.734 227.378 38.3264V28.8903C227.378 28.4827 227.331 28.1838 227.235 27.9935C227.153 27.8033 226.989 27.6743 226.743 27.6063C226.498 27.5248 226.115 27.484 225.597 27.484C225.569 27.484 225.556 27.4433 225.556 27.3618C225.556 27.2802 225.569 27.2395 225.597 27.2395L226.641 27.2599C227.214 27.287 227.672 27.3006 228.013 27.3006C228.409 27.3006 228.907 27.287 229.508 27.2599L230.491 27.2395C230.518 27.2395 230.532 27.2802 230.532 27.3618C230.532 27.4433 230.518 27.484 230.491 27.484C229.972 27.484 229.583 27.5248 229.324 27.6063C229.078 27.6878 228.907 27.8305 228.812 28.0343C228.73 28.2245 228.689 28.5234 228.689 28.931V33.1294H236.553V28.931C236.553 28.5234 236.505 28.2245 236.41 28.0343C236.328 27.8305 236.164 27.6878 235.918 27.6063C235.672 27.5248 235.283 27.484 234.751 27.484C234.71 27.484 234.689 27.4433 234.689 27.3618C234.689 27.2802 234.71 27.2395 234.751 27.2395L235.734 27.2599C236.334 27.287 236.833 27.3006 237.229 27.3006C237.597 27.3006 238.068 27.287 238.642 27.2599L239.645 27.2395C239.686 27.2395 239.707 27.2802 239.707 27.3618C239.707 27.4433 239.686 27.484 239.645 27.484C239.126 27.484 238.744 27.5248 238.498 27.6063C238.253 27.6743 238.082 27.8033 237.986 27.9935C237.904 28.1838 237.863 28.4827 237.863 28.8903V38.3264C237.863 38.734 237.904 39.0397 237.986 39.2435C238.082 39.4338 238.253 39.5628 238.498 39.6308C238.744 39.6987 239.126 39.7327 239.645 39.7327Z" fill="white"/>
<path d="M254.959 39.7327C254.986 39.7327 255 39.7734 255 39.8549C255 39.9365 254.986 39.9772 254.959 39.9772C254.522 39.9772 254.181 39.9704 253.935 39.9569L252.522 39.9365L251.027 39.9569C250.781 39.9704 250.454 39.9772 250.044 39.9772C250.017 39.9772 250.003 39.9365 250.003 39.8549C250.003 39.7734 250.017 39.7327 250.044 39.7327C250.577 39.7327 250.966 39.6987 251.211 39.6308C251.457 39.5628 251.621 39.4338 251.703 39.2435C251.798 39.0397 251.846 38.734 251.846 38.3264V29.9093L244.228 38.0207V38.3264C244.228 38.734 244.269 39.0397 244.351 39.2435C244.447 39.4338 244.617 39.5628 244.863 39.6308C245.109 39.6987 245.498 39.7327 246.03 39.7327C246.058 39.7327 246.071 39.7734 246.071 39.8549C246.071 39.9365 246.058 39.9772 246.03 39.9772C245.607 39.9772 245.273 39.9704 245.027 39.9569L243.552 39.9365L242.139 39.9569C241.894 39.9704 241.552 39.9772 241.115 39.9772C241.088 39.9772 241.074 39.9365 241.074 39.8549C241.074 39.7734 241.088 39.7327 241.115 39.7327C241.634 39.7327 242.016 39.6987 242.262 39.6308C242.522 39.5628 242.692 39.4338 242.774 39.2435C242.87 39.0397 242.917 38.734 242.917 38.3264V28.8903C242.917 28.4827 242.87 28.1838 242.774 27.9935C242.692 27.8033 242.528 27.6743 242.283 27.6063C242.037 27.5248 241.655 27.484 241.136 27.484C241.108 27.484 241.095 27.4433 241.095 27.3618C241.095 27.2802 241.108 27.2395 241.136 27.2395L242.18 27.2599C242.754 27.287 243.211 27.3006 243.552 27.3006C243.948 27.3006 244.447 27.287 245.047 27.2599L246.03 27.2395C246.058 27.2395 246.071 27.2802 246.071 27.3618C246.071 27.4433 246.058 27.484 246.03 27.484C245.511 27.484 245.122 27.5248 244.863 27.6063C244.617 27.6878 244.447 27.8305 244.351 28.0343C244.269 28.2245 244.228 28.5234 244.228 28.931V37.3278L251.846 29.2571V28.931C251.846 28.5234 251.798 28.2245 251.703 28.0343C251.621 27.8305 251.457 27.6878 251.211 27.6063C250.966 27.5248 250.577 27.484 250.044 27.484C250.017 27.484 250.003 27.4433 250.003 27.3618C250.003 27.2802 250.017 27.2395 250.044 27.2395L251.027 27.2599C251.628 27.287 252.126 27.3006 252.522 27.3006C252.863 27.3006 253.334 27.287 253.935 27.2599L254.959 27.2395C254.986 27.2395 255 27.2802 255 27.3618C255 27.4433 254.986 27.484 254.959 27.484C254.44 27.484 254.058 27.5248 253.812 27.6063C253.566 27.6743 253.396 27.8033 253.3 27.9935C253.218 28.1838 253.177 28.4827 253.177 28.8903V38.3264C253.177 38.734 253.218 39.0397 253.3 39.2435C253.396 39.4338 253.566 39.5628 253.812 39.6308C254.058 39.6987 254.44 39.7327 254.959 39.7327Z" fill="white"/>
</svg>
