<svg width="50" height="50" viewBox="0 0 50 50" fill="none" xmlns="http://www.w3.org/2000/svg">
<circle cx="25" cy="25" r="25" fill="#3E8DFF"/>
<path d="M23.84 32.16C23.1067 32.16 22.3667 32.1333 21.62 32.08C20.8733 32.04 20.22 31.9467 19.66 31.8V18.34C19.9533 18.2867 20.2667 18.24 20.6 18.2C20.9333 18.1467 21.2733 18.1067 21.62 18.08C21.9667 18.0533 22.3067 18.0333 22.64 18.02C22.9867 18.0067 23.3133 18 23.62 18C24.46 18 25.24 18.0667 25.96 18.2C26.68 18.32 27.3 18.5267 27.82 18.82C28.3533 19.1133 28.7667 19.5 29.06 19.98C29.3533 20.46 29.5 21.0533 29.5 21.76C29.5 22.4133 29.34 22.9733 29.02 23.44C28.7133 23.9067 28.28 24.28 27.72 24.56C28.56 24.84 29.18 25.2533 29.58 25.8C29.98 26.3467 30.18 27.04 30.18 27.88C30.18 29.3067 29.66 30.38 28.62 31.1C27.58 31.8067 25.9867 32.16 23.84 32.16ZM22.14 25.76V29.98C22.42 30.0067 22.72 30.0267 23.04 30.04C23.36 30.0533 23.6533 30.06 23.92 30.06C24.44 30.06 24.92 30.0267 25.36 29.96C25.8133 29.8933 26.2 29.78 26.52 29.62C26.8533 29.4467 27.1133 29.22 27.3 28.94C27.5 28.66 27.6 28.3 27.6 27.86C27.6 27.0733 27.3133 26.5267 26.74 26.22C26.1667 25.9133 25.3733 25.76 24.36 25.76H22.14ZM22.14 23.78H23.92C24.88 23.78 25.6333 23.6467 26.18 23.38C26.7267 23.1 27 22.6067 27 21.9C27 21.2333 26.7133 20.76 26.14 20.48C25.58 20.2 24.8467 20.06 23.94 20.06C23.5533 20.06 23.2067 20.0667 22.9 20.08C22.6067 20.0933 22.3533 20.1133 22.14 20.14V23.78Z" fill="white"/>
</svg>
