<svg width="40" height="40" viewBox="0 0 40 40" fill="none" xmlns="http://www.w3.org/2000/svg">
<circle cx="20" cy="20" r="20" fill="#47C756"/>
<path d="M20.0127 10C14.5062 10 10.0235 14.4784 10.0215 19.9844C10.0205 21.7444 10.4815 23.4626 11.3556 24.9766L10 30L15.2329 28.7637C16.6921 29.5597 18.3347 29.9775 20.0068 29.9785H20.0107C25.5163 29.9785 29.997 25.4991 30 19.9941C30.002 17.3251 28.964 14.8157 27.0778 12.9277C25.1917 11.0407 22.685 10.001 20.0127 10ZM20.0107 12C22.1469 12.001 24.1545 12.8338 25.6636 14.3418C27.1728 15.8518 28.0018 17.8582 27.9998 19.9922C27.9978 24.3962 24.4152 27.9785 20.0088 27.9785C18.6757 27.9775 17.3551 27.6428 16.192 27.0078L15.5181 26.6406L14.7739 26.8164L12.805 27.2812L13.2855 25.4961L13.5023 24.6953L13.0882 23.9766C12.3901 22.7686 12.0207 21.3874 12.0217 19.9844C12.0237 15.5824 15.6073 12 20.0107 12ZM16.4772 15.375C16.3102 15.375 16.0401 15.4375 15.8111 15.6875C15.5821 15.9365 14.936 16.5396 14.936 17.7676C14.936 18.9956 15.8306 20.1826 15.9557 20.3496C16.0797 20.5156 17.6825 23.1152 20.2197 24.1152C22.328 24.9462 22.7561 24.7822 23.2142 24.7402C23.6722 24.6992 24.6919 24.1377 24.8999 23.5547C25.1079 22.9717 25.1084 22.4702 25.0464 22.3672C24.9844 22.2632 24.8179 22.2012 24.5678 22.0762C24.3188 21.9512 23.0916 21.3486 22.8626 21.2656C22.6336 21.1826 22.466 21.1406 22.3 21.3906C22.134 21.6406 21.6569 22.2012 21.5109 22.3672C21.3649 22.5342 21.2198 22.5566 20.9698 22.4316C20.7198 22.3056 19.9159 22.0414 18.9618 21.1914C18.2197 20.5304 17.719 19.7148 17.573 19.4648C17.428 19.2158 17.5593 19.0791 17.6843 18.9551C17.7964 18.8431 17.9324 18.6636 18.0574 18.5176C18.1814 18.3716 18.2244 18.2676 18.3075 18.1016C18.3905 17.9356 18.348 17.7891 18.286 17.6641C18.224 17.5391 17.7384 16.3065 17.5164 15.8125C17.3293 15.3975 17.1318 15.3879 16.9538 15.3809C16.8088 15.3749 16.6432 15.375 16.4772 15.375Z" fill="white"/>
</svg>
