<svg width="40" height="40" viewBox="0 0 40 40" fill="none" xmlns="http://www.w3.org/2000/svg">
<circle cx="20" cy="20" r="20" fill="#F7931E"/>
<path d="M21.86 29.1875C21.8461 29.1875 21.8736 29.1878 21.86 29.1881C21.8464 29.1878 21.8739 29.1875 21.86 29.1875Z" fill="white"/>
<path d="M22.1901 24.6021C24.5644 24.1516 25.9873 23.1043 26.0625 23.0481C26.7573 22.529 26.8689 21.5837 26.3117 20.9365C25.7546 20.2893 24.7398 20.1853 24.0448 20.7043C24.0301 20.7153 22.5126 21.7997 20.0157 21.8013C17.5188 21.7997 15.9692 20.7153 15.9545 20.7043C15.2596 20.1853 14.2447 20.2893 13.6876 20.9365C13.1304 21.5837 13.242 22.529 13.9368 23.0481C14.0131 23.1051 15.4947 24.1797 17.9356 24.6196L14.5337 27.9311C13.9155 28.5283 13.9341 29.4792 14.5752 30.0551C14.8882 30.3361 15.2915 30.4758 15.6945 30.4758C16.117 30.4758 16.5391 30.322 16.8555 30.0163L20.0158 26.8806L23.4953 30.0367C24.1257 30.6229 25.1466 30.622 25.7758 30.035C26.4051 29.4479 26.4043 28.4969 25.774 27.9107L22.1901 24.6021Z" fill="white"/>
<path d="M19.9993 9.52441C16.7637 9.52441 14.1407 11.9533 14.1407 14.9493C14.1407 17.9455 16.7637 20.3745 19.9993 20.3745C23.235 20.3745 25.8579 17.9455 25.8579 14.9493C25.8579 11.9533 23.235 9.52441 19.9993 9.52441ZM19.9993 17.192C18.6618 17.192 17.5775 16.1879 17.5775 14.9494C17.5775 13.7109 18.6618 12.7069 19.9993 12.7069C21.3368 12.7069 22.4211 13.7109 22.4211 14.9494C22.4211 16.1879 21.3368 17.192 19.9993 17.192Z" fill="white"/>
</svg>
