<svg width="40" height="40" viewBox="0 0 40 40" fill="none" xmlns="http://www.w3.org/2000/svg">
<g clip-path="url(#clip0_8_1261)">
<path d="M20 0C14.6957 0 9.60859 2.10714 5.85786 5.85786C2.10714 9.60859 0 14.6957 0 20C0 25.3043 2.10714 30.3914 5.85786 34.1421C9.60859 37.8929 14.6957 40 20 40C25.3043 40 30.3914 37.8929 34.1421 34.1421C37.8929 30.3914 40 25.3043 40 20C40 14.6957 37.8929 9.60859 34.1421 5.85786C30.3914 2.10714 25.3043 0 20 0Z" fill="#2AB1EE"/>
<path d="M29.8723 11.0712L26.156 30.0454C26.156 30.0454 25.9963 30.9124 24.9209 30.9124C24.3495 30.9124 24.0548 30.6406 24.0548 30.6406L16.0052 23.961L12.0667 21.9759L7.01217 20.6317C7.01217 20.6317 6.11237 20.3718 6.11237 19.6277C6.11237 19.0077 7.03796 18.712 7.03796 18.712L28.1848 10.3112C28.1848 10.3112 28.8306 10.0781 29.3019 10.0791C29.5915 10.0791 29.9219 10.2031 29.9219 10.5751C29.9219 10.8232 29.8723 11.0712 29.8723 11.0712Z" fill="white"/>
<path d="M19.0096 26.453L15.6108 29.8003C15.6108 29.8003 15.463 29.9143 15.2656 29.9193C15.1971 29.9213 15.1237 29.9104 15.0483 29.8766L16.0047 23.959L19.0096 26.453Z" fill="#B0BEC5"/>
<path d="M25.8515 14.2422C25.6838 14.0239 25.3743 13.9843 25.156 14.1499L12.0648 21.9843C12.0648 21.9843 14.154 27.8295 14.4725 28.8414C14.7919 29.8543 15.0479 29.8781 15.0479 29.8781L16.0042 23.9604L25.7582 14.9366C25.9765 14.771 26.0171 14.4604 25.8515 14.2422Z" fill="#CFD8DC"/>
</g>
<defs>
<clipPath id="clip0_8_1261">
<rect width="40" height="40" fill="white"/>
</clipPath>
</defs>
</svg>
