<svg width="128" height="22" viewBox="0 0 128 22" fill="none" xmlns="http://www.w3.org/2000/svg">
<path d="M11 0L13.4697 7.60081H21.4616L14.996 12.2984L17.4656 19.8992L11 15.2016L4.53436 19.8992L7.00402 12.2984L0.538379 7.60081H8.53035L11 0Z" fill="#FBAF3D"/>
<path d="M37.5 0L39.8574 7.60081H47.4861L41.3143 12.2984L43.6717 19.8992L37.5 15.2016L31.3283 19.8992L33.6857 12.2984L27.5139 7.60081H35.1426L37.5 0Z" fill="#FBAF3D"/>
<path d="M64 0L66.4697 7.60081H74.4616L67.996 12.2984L70.4656 19.8992L64 15.2016L57.5344 19.8992L60.004 12.2984L53.5384 7.60081H61.5303L64 0Z" fill="#FBAF3D"/>
<path d="M90.5 0L92.8574 7.60081H100.486L94.3143 12.2984L96.6717 19.8992L90.5 15.2016L84.3283 19.8992L86.6857 12.2984L80.5139 7.60081H88.1426L90.5 0Z" fill="#FBAF3D"/>
<path d="M117 0L119.47 7.60081H127.462L120.996 12.2984L123.466 19.8992L117 15.2016L110.534 19.8992L113.004 12.2984L106.538 7.60081H114.53L117 0Z" fill="#FBAF3D"/>
</svg>
